<?xml version="1.0" encoding="UTF-8"?>
<svg id="Layer_1" data-name="Layer 1" xmlns="http://www.w3.org/2000/svg" viewBox="0 0 2236.8 223.67">
  <defs>
    <style>
      .cls-1 {
        stroke: #008584;
        stroke-miterlimit: 10;
      }

      .cls-1, .cls-2 {
        fill: #008584;
      }

      .cls-3 {
        fill: #fff;
      }
    </style>
  </defs>
  <g>
    <ellipse class="cls-2" cx="1776.69" cy="75.58" rx="14.68" ry="14.97"/>
    <path class="cls-2" d="M219.8,58.43c-7.77-10.32-35.92-2.25-62.87,18.04-25.33,19.06-41.03,40.72-36.34,51.97-17.02,13.94-30.58,24.81-28.96,26.89,1.54,1.99,14.93-9.85,31.62-22.3,9,8.5,35.95.29,61.82-19.18,26.95-20.29,42.5-45.1,34.74-55.42ZM123.43,132.77c-1.28-1.05-2.25-2.38-2.63-4.02,1.56-1.72,36.38-40.02,56.59-42.49,16.64-2.04-33.68,32.82-53.96,46.51Z"/>
    <g>
      <path class="cls-3" d="M272.74,147.77V45.02h63.85v16.03h-45.57v27.44h44.3v15.89h-44.3v43.39h-18.28Z"/>
      <path class="cls-3" d="M360.22,44.96c6.05,0,10.55,4.64,10.55,10.41s-4.5,10.41-10.55,10.41-10.55-4.5-10.55-10.41,4.64-10.41,10.55-10.41ZM351.36,147.77v-70.18h17.72v70.18h-17.72Z"/>
      <path class="cls-3" d="M406.77,147.77h-17.72v-70.18h17.16v11.95c3.23-8.16,12.38-13.64,23.35-13.64,16.88,0,26.3,12.38,26.3,29.82v42.05h-17.72v-39.1c0-9.99-4.5-17.3-15.05-17.3-9.7,0-16.31,7.03-16.31,17.16v39.24Z"/>
      <path class="cls-3" d="M492.28,147.77h-17.72v-70.18h17.16v11.95c3.23-8.16,12.38-13.64,23.35-13.64,16.88,0,26.3,12.38,26.3,29.82v42.05h-17.72v-39.1c0-9.99-4.5-17.3-15.05-17.3-9.7,0-16.31,7.03-16.31,17.16v39.24Z"/>
      <path class="cls-3" d="M573.14,118.66c1.13,10.55,7.88,17.72,20.39,17.72,8.58,0,15.19-3.8,18.56-9.14h16.45c-4.78,12.52-18.28,22.22-35.02,22.22-23.91,0-37.83-15.89-37.83-36.85s15.33-36.71,36.99-36.71,36.85,15.33,36.85,36.99v5.77h-56.4ZM573,106.98h39.66c-1.13-10.83-8.3-18.42-19.69-18.42s-18.56,7.03-19.97,18.42Z"/>
      <path class="cls-3" d="M700,89.97v-12.38h17.44v69.2c0,18.14-16.45,31.93-38.25,31.93-18.14,0-32.35-8.02-37.69-24.05h17.58c3.38,6.75,9.99,10.41,19.97,10.41,12.09,0,20.67-6.61,20.67-18.28v-13.64c-4.08,7.03-13.08,12.94-24.61,12.94-20.82,0-34.74-15.61-34.74-35.02s13.92-35.16,34.74-35.16c12.1,0,21.52,6.19,24.89,14.06ZM699.72,111.06c0-12.38-9.56-20.53-21.24-20.53-12.52,0-20.53,8.72-20.53,20.53s8.02,20.39,20.53,20.39c11.67,0,21.24-8.16,21.24-20.39Z"/>
      <path class="cls-3" d="M810.54,77.59v70.18h-17.02v-12.1c-4.08,7.17-13.36,13.78-25.6,13.78-20.82,0-35.44-16.6-35.44-36.71s14.63-36.85,35.44-36.85c12.24,0,21.8,6.33,25.32,13.78v-12.1h17.3ZM771.3,134.83c11.67,0,21.52-8.58,21.52-22.08s-9.85-22.22-21.52-22.22c-12.66,0-21.1,9.99-21.1,22.22s8.44,22.08,21.1,22.08Z"/>
      <path class="cls-3" d="M847.67,147.77h-17.72v-70.18h17.16v11.95c3.23-8.16,12.38-13.64,23.35-13.64,16.88,0,26.3,12.38,26.3,29.82v42.05h-17.72v-39.1c0-9.99-4.5-17.3-15.05-17.3-9.7,0-16.31,7.03-16.31,17.16v39.24Z"/>
      <path class="cls-3" d="M925.58,126.81c.98,6.47,5.2,10.27,12.94,10.27,6.75,0,11.53-3.38,11.53-9,0-4.5-2.39-6.89-7.59-8.3l-10.41-2.81c-12.1-3.09-18.85-9-18.85-20.25,0-12.8,10.97-20.82,24.89-20.82,15.05,0,23.49,8.72,24.89,20.96h-15.05c-.28-4.36-3.23-8.58-9.42-8.58-5.48,0-9.14,2.95-9.14,7.59,0,4.36,2.53,6.05,7.59,7.45l12.52,3.52c11.25,3.09,16.74,9.56,16.74,19.69,0,13.92-13.22,22.92-27.57,22.92s-26.3-6.75-28.13-22.64h15.05Z"/>
    </g>
  </g>
  <g>
    <path class="cls-1" d="M1057.99,130.57h-40.64l-6.77,16.77h-9.22l32.65-77.73h7.33l32.65,77.73h-9.22l-6.77-16.77ZM1020.35,123.13h34.64l-17.32-43.3-17.32,43.3Z"/>
    <path class="cls-1" d="M1139.82,92.71v54.19c0,14.1-12.1,24.87-28.76,24.87-12.66,0-23.76-6-28.31-17.77h8.55c3.33,7,10.66,10.99,19.76,10.99,12.21,0,20.1-6.77,20.1-17.99v-13.44c-3.11,6.66-11.66,12.33-22.32,12.33-16.77,0-27.32-12.55-27.32-27.2s10.55-27.32,27.32-27.32c11.1,0,19.65,5.89,22.43,12.77v-11.44h8.55ZM1110.39,138.68c10.55,0,20.76-7.55,20.76-19.99s-10.22-20.1-20.76-20.1c-12.55,0-20.32,8.66-20.32,20.1s7.77,19.99,20.32,19.99Z"/>
    <path class="cls-1" d="M1187.9,100.48h-2.33c-11.99,0-19.32,8.11-19.32,20.99v25.87h-8.66v-54.63h8.33v13.55c2.67-9.88,11.21-13.99,21.99-13.99v8.22Z"/>
    <path class="cls-1" d="M1193.89,120.02c0-14.99,11.44-28.65,29.54-28.65s29.54,13.66,29.54,28.65-11.44,28.65-29.54,28.65-29.54-13.66-29.54-28.65ZM1202.33,120.02c0,11.1,7.99,21.43,21.1,21.43s21.1-10.33,21.1-21.43-7.88-21.43-21.1-21.43-21.1,10.44-21.1,21.43Z"/>
    <path class="cls-1" d="M1275.5,147.34h-8.66v-54.63h8.33v10.66c2.89-7.77,10.77-11.99,20.43-11.99,13.32,0,21.76,10.44,21.76,24.65v31.31h-8.66v-29.65c0-10.77-4.66-18.54-15.77-18.54-10.22,0-17.43,7.99-17.43,18.32v29.87Z"/>
    <path class="cls-1" d="M1339.23,123.58c1.33,11.33,8.88,18.43,20.32,18.43,8.55,0,15.1-4.11,18.32-9.33h8.22c-4.11,8.99-14.1,15.99-26.43,15.99-17.99,0-28.98-12.88-28.98-28.65s11.77-28.65,28.54-28.65,28.09,12.44,28.09,28.09v4.11h-48.08ZM1339.12,116.92h40.08c-.89-10.88-8.11-19.1-19.88-19.1-10.88,0-19.1,7.55-20.21,19.1Z"/>
    <path class="cls-1" d="M1455.6,92.71v54.19c0,14.1-12.1,24.87-28.76,24.87-12.66,0-23.76-6-28.31-17.77h8.55c3.33,7,10.66,10.99,19.76,10.99,12.21,0,20.1-6.77,20.1-17.99v-13.44c-3.11,6.66-11.66,12.33-22.32,12.33-16.77,0-27.32-12.55-27.32-27.2s10.55-27.32,27.32-27.32c11.1,0,19.65,5.89,22.43,12.77v-11.44h8.55ZM1426.17,138.68c10.55,0,20.76-7.55,20.76-19.99s-10.22-20.1-20.76-20.1c-12.55,0-20.32,8.66-20.32,20.1s7.77,19.99,20.32,19.99Z"/>
    <path class="cls-1" d="M1469.48,120.02c0-14.99,11.44-28.65,29.54-28.65s29.54,13.66,29.54,28.65-11.44,28.65-29.54,28.65-29.54-13.66-29.54-28.65ZM1477.92,120.02c0,11.1,7.99,21.43,21.1,21.43s21.1-10.33,21.1-21.43-7.88-21.43-21.1-21.43-21.1,10.44-21.1,21.43Z"/>
    <path class="cls-1" d="M1595.17,110.25h-8.44c-3.11-6.55-9.44-11.66-19.1-11.66-12.99,0-20.54,10.33-20.54,21.43s7.55,21.43,20.54,21.43c9.99,0,15.99-5,19.1-11.66h8.44c-3.55,10.66-13.66,18.88-27.43,18.88-17.77,0-29.2-12.99-29.2-28.65s11.44-28.65,29.2-28.65c13.77,0,23.87,8.22,27.43,18.88Z"/>
    <path class="cls-1" d="M1613.38,68.39c3.33,0,5.66,2.44,5.66,5.55s-2.33,5.55-5.66,5.55-5.66-2.44-5.66-5.55,2.33-5.55,5.66-5.55ZM1609.05,147.34v-54.63h8.66v54.63h-8.66Z"/>
    <path class="cls-1" d="M1631.92,120.02c0-14.99,11.44-28.65,29.54-28.65s29.54,13.66,29.54,28.65-11.44,28.65-29.54,28.65-29.54-13.66-29.54-28.65ZM1640.36,120.02c0,11.1,7.99,21.43,21.1,21.43s21.1-10.33,21.1-21.43-7.88-21.43-21.1-21.43-21.1,10.44-21.1,21.43Z"/>
    <path class="cls-1" d="M1708.31,131.79c1.22,6.55,6.11,10.44,13.55,10.44s12.44-3.78,12.44-9.66c0-4.77-3-7.33-8.33-8.88l-8.88-2.55c-7.99-2.22-13.99-6.22-13.99-14.77,0-8.99,7.66-14.99,18.1-14.99s16.99,6.33,18.21,15.32h-7.55c-.56-4.66-3.89-8.88-10.66-8.88-6.11,0-10.1,3.22-10.1,8.33s3,6.55,8.33,8.11l9.88,2.89c8.33,2.44,12.99,7.11,12.99,14.88,0,10.22-9.77,16.66-20.54,16.66s-19.54-5.44-21.1-16.88h7.66Z"/>
  </g>
</svg>