<?xml version="1.0" encoding="UTF-8"?>
<svg id="Layer_1" data-name="Layer 1" xmlns="http://www.w3.org/2000/svg" viewBox="0 0 2236.8 223.67">
  <defs>
    <style>
      .cls-1 {
        fill: #fff;
      }

      .cls-2 {
        fill: #fd8100;
      }
    </style>
  </defs>
  <ellipse class="cls-2" cx="1792.88" cy="72.17" rx="14.68" ry="14.97"/>
  <g>
    <path class="cls-2" d="M192.33,106.78l4.28-.25c-2.07-12.96-9.05-23.92-18.73-31.28,8.63,15.2,7.41,21,7.41,21-2.88-12.96-11.47-22.57-14.17-25.33,0,0-.02-.01-.03-.02-7.36-6.7-16.71-11.25-28-9.18,0,0,26.06,13.5,33.97,40.68h-6.42s-4.29-21.84-26.82-36.93c-1.09.1-2.18.21-3.28.39-5.24.83-10.14,2.48-14.62,4.77-3.97,2.39-18.62,13.05-21.24,41.5,0,0-7.24-7.09,11.61-35.02-11.24,9.69-17.84,24.29-16.95,39.86-1.04.92-1.59,1.86-1.55,2.8.26,6.4,26.83,10.52,59.35,9.21,32.52-1.31,58.67-7.56,58.41-13.96-.15-3.73-9.23-6.68-23.2-8.24ZM158.56,126.12c-29.07,1.17-52.78-1.23-52.95-5.37-.17-4.14,23.27-8.45,52.34-9.62,29.07-1.17,52.78,1.23,52.95,5.37.17,4.14-23.27,8.45-52.34,9.62Z"/>
    <g>
      <g>
        <path class="cls-1" d="M272.74,147.77V45.02h63.85v16.03h-45.57v27.44h44.3v15.89h-44.3v43.39h-18.28Z"/>
        <path class="cls-1" d="M360.22,44.96c6.05,0,10.55,4.64,10.55,10.41s-4.5,10.41-10.55,10.41-10.55-4.5-10.55-10.41,4.64-10.41,10.55-10.41ZM351.36,147.77v-70.18h17.72v70.18h-17.72Z"/>
        <path class="cls-1" d="M406.77,147.77h-17.72v-70.18h17.16v11.95c3.23-8.16,12.38-13.64,23.35-13.64,16.88,0,26.3,12.38,26.3,29.82v42.05h-17.72v-39.1c0-9.99-4.5-17.3-15.05-17.3-9.7,0-16.31,7.03-16.31,17.16v39.24Z"/>
        <path class="cls-1" d="M492.28,147.77h-17.72v-70.18h17.16v11.95c3.23-8.16,12.38-13.64,23.35-13.64,16.88,0,26.3,12.38,26.3,29.82v42.05h-17.72v-39.1c0-9.99-4.5-17.3-15.05-17.3-9.7,0-16.31,7.03-16.31,17.16v39.24Z"/>
        <path class="cls-1" d="M573.14,118.66c1.13,10.55,7.88,17.72,20.39,17.72,8.58,0,15.19-3.8,18.56-9.14h16.45c-4.78,12.52-18.28,22.22-35.02,22.22-23.91,0-37.83-15.89-37.83-36.85s15.33-36.71,36.99-36.71,36.85,15.33,36.85,36.99v5.77h-56.4ZM573,106.98h39.66c-1.13-10.83-8.3-18.42-19.69-18.42s-18.56,7.03-19.97,18.42Z"/>
        <path class="cls-1" d="M700,89.97v-12.38h17.44v69.2c0,18.14-16.45,31.93-38.25,31.93-18.14,0-32.35-8.02-37.69-24.05h17.58c3.38,6.75,9.99,10.41,19.97,10.41,12.09,0,20.67-6.61,20.67-18.28v-13.64c-4.08,7.03-13.08,12.94-24.61,12.94-20.82,0-34.74-15.61-34.74-35.02s13.92-35.16,34.74-35.16c12.1,0,21.52,6.19,24.89,14.06ZM699.72,111.06c0-12.38-9.56-20.53-21.24-20.53-12.52,0-20.53,8.72-20.53,20.53s8.02,20.39,20.53,20.39c11.67,0,21.24-8.16,21.24-20.39Z"/>
        <path class="cls-1" d="M810.54,77.59v70.18h-17.02v-12.1c-4.08,7.17-13.36,13.78-25.6,13.78-20.82,0-35.44-16.6-35.44-36.71s14.63-36.85,35.44-36.85c12.24,0,21.8,6.33,25.32,13.78v-12.1h17.3ZM771.3,134.83c11.67,0,21.52-8.58,21.52-22.08s-9.85-22.22-21.52-22.22c-12.66,0-21.1,9.99-21.1,22.22s8.44,22.08,21.1,22.08Z"/>
        <path class="cls-1" d="M847.67,147.77h-17.72v-70.18h17.16v11.95c3.23-8.16,12.38-13.64,23.35-13.64,16.88,0,26.3,12.38,26.3,29.82v42.05h-17.72v-39.1c0-9.99-4.5-17.3-15.05-17.3-9.7,0-16.31,7.03-16.31,17.16v39.24Z"/>
        <path class="cls-1" d="M925.58,126.81c.98,6.47,5.2,10.27,12.94,10.27,6.75,0,11.53-3.38,11.53-9,0-4.5-2.39-6.89-7.59-8.3l-10.41-2.81c-12.1-3.09-18.85-9-18.85-20.25,0-12.8,10.97-20.82,24.89-20.82,15.05,0,23.49,8.72,24.89,20.96h-15.05c-.28-4.36-3.23-8.58-9.42-8.58-5.48,0-9.14,2.95-9.14,7.59,0,4.36,2.53,6.05,7.59,7.45l12.52,3.52c11.25,3.09,16.74,9.56,16.74,19.69,0,13.92-13.22,22.92-27.57,22.92s-26.3-6.75-28.13-22.64h15.05Z"/>
      </g>
      <g>
        <g>
          <path class="cls-2" d="M1081.97,90.17h-8.77c-5.22-9.55-15.1-16.1-28.54-16.1-19.21,0-32.53,14.21-32.53,32.65s13.32,32.65,32.53,32.65c13.44,0,23.32-6.55,28.54-16.1h8.77c-5.66,13.99-19.43,23.87-37.31,23.87-23.98,0-41.42-17.54-41.42-40.42s17.43-40.42,41.42-40.42c17.88,0,31.65,9.88,37.31,23.87Z"/>
          <path class="cls-2" d="M1044.66,147.64c-23.9,0-41.92-17.59-41.92-40.92s18.02-40.92,41.92-40.92c17.26,0,31.73,9.27,37.77,24.19l.28.69h-9.81l-.14-.26c-5.5-10.07-15.74-15.84-28.1-15.84-18.56,0-32.03,13.52-32.03,32.15s13.47,32.15,32.03,32.15c12.35,0,22.6-5.77,28.1-15.84l.14-.26h9.81l-.28.69c-6.04,14.92-20.51,24.19-37.77,24.19ZM1044.66,66.8c-23.33,0-40.92,17.16-40.92,39.92s17.59,39.92,40.92,39.92c16.58,0,30.51-8.74,36.56-22.87h-7.73c-5.72,10.24-16.21,16.1-28.83,16.1-19.14,0-33.03-13.94-33.03-33.15s13.89-33.15,33.03-33.15c12.63,0,23.12,5.86,28.83,16.1h7.73c-6.04-14.13-19.98-22.87-36.56-22.87Z"/>
        </g>
        <g>
          <path class="cls-2" d="M1092.3,118.27c0-14.99,11.44-28.65,29.54-28.65s29.54,13.66,29.54,28.65-11.44,28.65-29.54,28.65-29.54-13.66-29.54-28.65ZM1100.73,118.27c0,11.1,7.99,21.43,21.1,21.43s21.1-10.33,21.1-21.43-7.88-21.43-21.1-21.43-21.1,10.44-21.1,21.43Z"/>
          <path class="cls-2" d="M1121.83,147.41c-19.51,0-30.04-15.02-30.04-29.15s10.53-29.15,30.04-29.15,30.04,15.02,30.04,29.15-10.53,29.15-30.04,29.15ZM1121.83,90.12c-18.86,0-29.04,14.5-29.04,28.15s10.18,28.15,29.04,28.15,29.04-14.5,29.04-28.15-10.18-28.15-29.04-28.15ZM1121.83,140.2c-14.03,0-21.6-11.3-21.6-21.93,0-14.24,11.13-21.93,21.6-21.93,14.03,0,21.6,11.3,21.6,21.93s-7.57,21.93-21.6,21.93ZM1121.83,97.33c-13.38,0-20.6,10.78-20.6,20.93s7.22,20.93,20.6,20.93,20.6-10.78,20.6-20.93-7.22-20.93-20.6-20.93Z"/>
        </g>
        <g>
          <path class="cls-2" d="M1173.91,145.58h-8.66v-54.63h8.33v10.66c2.89-7.77,10.77-11.99,20.43-11.99,13.32,0,21.76,10.44,21.76,24.65v31.31h-8.66v-29.65c0-10.77-4.66-18.54-15.77-18.54-10.22,0-17.43,7.99-17.43,18.32v29.87Z"/>
          <path class="cls-2" d="M1216.27,146.08h-9.66v-30.15c0-6.74-1.98-18.04-15.27-18.04-9.81,0-16.93,7.5-16.93,17.82v30.37h-9.66v-55.63h9.33v8.83c3.43-6.41,10.7-10.17,19.93-10.17,13.32,0,22.26,10.11,22.26,25.15v31.81ZM1207.61,145.08h7.66v-30.81c0-14.45-8.54-24.15-21.26-24.15-9.79,0-17.25,4.36-19.96,11.67l-.97,2.61v-12.94h-7.33v53.63h7.66v-29.37c0-10.73,7.71-18.82,17.93-18.82s16.27,6.76,16.27,19.04v29.15Z"/>
        </g>
        <g>
          <path class="cls-2" d="M1236.42,130.04c1.22,6.55,6.11,10.44,13.55,10.44s12.44-3.77,12.44-9.66c0-4.77-3-7.33-8.33-8.88l-8.88-2.55c-7.99-2.22-13.99-6.22-13.99-14.77,0-8.99,7.66-14.99,18.1-14.99s16.99,6.33,18.21,15.32h-7.55c-.56-4.66-3.89-8.88-10.66-8.88-6.11,0-10.1,3.22-10.1,8.33s3,6.55,8.33,8.11l9.88,2.89c8.33,2.44,12.99,7.11,12.99,14.88,0,10.22-9.77,16.66-20.54,16.66s-19.54-5.44-21.1-16.88h7.66Z"/>
          <path class="cls-2" d="M1249.85,147.41c-12.05,0-20.12-6.47-21.59-17.31l-.08-.57h8.65l.08.41c1.19,6.37,5.95,10.03,13.06,10.03s11.94-3.77,11.94-9.16c0-4.2-2.46-6.8-7.97-8.4l-8.88-2.55c-9.79-2.72-14.35-7.57-14.35-15.25,0-9.12,7.65-15.49,18.6-15.49,10.37,0,17.37,5.89,18.71,15.76l.08.57h-8.57l-.05-.44c-.49-4.08-3.41-8.44-10.16-8.44-5.83,0-9.6,3.07-9.6,7.83s2.46,6.02,7.97,7.63l9.88,2.89c8.98,2.63,13.35,7.66,13.35,15.36,0,11.14-10.84,17.16-21.04,17.16ZM1229.33,130.54c1.6,9.96,9.23,15.88,20.52,15.88,9.72,0,20.04-5.66,20.04-16.16,0-7.2-4.13-11.91-12.63-14.4l-9.88-2.89c-4.92-1.44-8.69-2.98-8.69-8.59s4.16-8.83,10.6-8.83c7.17,0,10.41,4.51,11.1,8.88h6.54c-1.46-9.11-7.86-14.32-17.63-14.32-10.36,0-17.6,5.96-17.6,14.49,0,7.16,4.33,11.7,13.62,14.29l8.89,2.56c5.93,1.73,8.69,4.7,8.69,9.36,0,5.98-5.32,10.16-12.94,10.16s-12.55-3.8-13.96-10.44h-6.67Z"/>
        </g>
        <g>
          <path class="cls-2" d="M1287.27,73.63h8.66v17.32h16.54v7.22h-16.54v30.54c0,7.55,2.44,10.88,9.33,10.88,2.55,0,4.55-.44,6.55-1v7c-1.55.67-5.33,1.33-8.44,1.33-12.77,0-16.1-7.77-16.1-20.99v-27.76h-11.21v-7.22h11.21v-17.32Z"/>
          <path class="cls-2" d="M1303.37,147.41c-14.59,0-16.6-10.33-16.6-21.49v-27.26h-11.21v-8.22h11.21v-17.32h9.66v17.32h16.54v8.22h-16.54v30.04c0,7.57,2.39,10.38,8.83,10.38,2.39,0,4.3-.39,6.42-.98l.63-.18v7.98l-.3.13c-1.55.66-5.39,1.37-8.64,1.37ZM1276.56,97.67h11.21v28.26c0,12.3,2.65,20.49,15.6,20.49,2.93,0,6.32-.59,7.94-1.17v-6c-1.95.51-3.79.85-6.05.85-6.98,0-9.83-3.3-9.83-11.38v-31.04h16.54v-6.22h-16.54v-17.32h-7.66v17.32h-11.21v6.22Z"/>
        </g>
        <g>
          <path class="cls-2" d="M1355,98.72h-2.33c-11.99,0-19.32,8.11-19.32,20.99v25.87h-8.66v-54.63h8.33v13.55c2.67-9.88,11.21-13.99,21.99-13.99v8.22Z"/>
          <path class="cls-2" d="M1333.85,146.08h-9.66v-55.63h9.33v11.1c3.26-7.47,10.77-11.54,21.49-11.54h.5v9.22h-2.83c-11.61,0-18.82,7.85-18.82,20.49v26.37ZM1325.19,145.08h7.66v-25.37c0-13.25,7.59-21.49,19.82-21.49h1.83v-7.21c-8.05.1-18.03,2.59-21,13.62l-.98,3.64v-16.82h-7.33v53.63Z"/>
        </g>
        <g>
          <path class="cls-2" d="M1406.63,90.95h8.66v54.63h-8.33v-10.66c-3.22,7.66-10.55,11.99-20.21,11.99-13.32,0-21.54-10.44-21.54-24.65v-31.31h8.66v29.87c0,10.77,4.44,18.54,15.55,18.54,10.22,0,17.21-7.99,17.21-18.32v-30.09Z"/>
          <path class="cls-2" d="M1386.76,147.41c-13.18,0-22.04-10.11-22.04-25.15v-31.81h9.66v30.37c0,8.23,2.61,18.04,15.05,18.04,9.68,0,16.71-7.5,16.71-17.82v-30.59h9.66v55.63h-9.33v-8.99c-3.66,6.59-10.72,10.32-19.71,10.32ZM1365.71,91.45v30.81c0,14.45,8.46,24.15,21.04,24.15,9.43,0,16.63-4.26,19.75-11.69l.96-2.29v12.64h7.33v-53.63h-7.66v29.59c0,10.91-7.45,18.82-17.71,18.82s-16.05-6.76-16.05-19.04v-29.37h-7.66Z"/>
        </g>
        <g>
          <path class="cls-2" d="M1485.8,108.49h-8.44c-3.11-6.55-9.44-11.66-19.1-11.66-12.99,0-20.54,10.33-20.54,21.43s7.55,21.43,20.54,21.43c9.99,0,15.99-5,19.1-11.66h8.44c-3.55,10.66-13.66,18.88-27.43,18.88-17.77,0-29.2-12.99-29.2-28.65s11.44-28.65,29.2-28.65c13.77,0,23.87,8.22,27.43,18.88Z"/>
          <path class="cls-2" d="M1458.37,147.41c-17.21,0-29.7-12.26-29.7-29.15s12.49-29.15,29.7-29.15c13.06,0,24.01,7.54,27.9,19.22l.22.66h-9.45l-.14-.29c-3.43-7.23-10.23-11.37-18.65-11.37-9.96,0-20.04,7.19-20.04,20.93,0,10.4,6.88,20.93,20.04,20.93,11.02,0,16.22-6.18,18.65-11.37l.13-.29h9.45l-.22.66c-3.89,11.67-14.84,19.22-27.9,19.22ZM1458.37,90.12c-16.63,0-28.7,11.84-28.7,28.15s12.07,28.15,28.7,28.15c12.37,0,22.78-6.99,26.72-17.88h-7.42c-2.6,5.39-8.07,11.66-19.41,11.66-13.81,0-21.04-11.03-21.04-21.93,0-14.4,10.59-21.93,21.04-21.93,8.71,0,15.77,4.24,19.41,11.66h7.42c-3.94-10.88-14.35-17.88-26.72-17.88Z"/>
        </g>
        <g>
          <path class="cls-2" d="M1503.89,73.63h8.66v17.32h16.54v7.22h-16.54v30.54c0,7.55,2.44,10.88,9.33,10.88,2.55,0,4.55-.44,6.55-1v7c-1.55.67-5.33,1.33-8.44,1.33-12.77,0-16.1-7.77-16.1-20.99v-27.76h-11.21v-7.22h11.21v-17.32Z"/>
          <path class="cls-2" d="M1520,147.41c-14.59,0-16.6-10.33-16.6-21.49v-27.26h-11.21v-8.22h11.21v-17.32h9.66v17.32h16.54v8.22h-16.54v30.04c0,7.57,2.39,10.38,8.83,10.38,2.39,0,4.3-.39,6.42-.98l.63-.18v7.98l-.3.13c-1.55.66-5.39,1.37-8.64,1.37ZM1493.18,97.67h11.21v28.26c0,12.3,2.65,20.49,15.6,20.49,2.93,0,6.32-.59,7.94-1.17v-6c-1.95.51-3.79.85-6.05.85-6.98,0-9.83-3.3-9.83-11.38v-31.04h16.54v-6.22h-16.54v-17.32h-7.66v17.32h-11.21v6.22Z"/>
        </g>
        <g>
          <path class="cls-2" d="M1536.87,118.27c0-14.99,11.44-28.65,29.54-28.65s29.54,13.66,29.54,28.65-11.44,28.65-29.54,28.65-29.54-13.66-29.54-28.65ZM1545.31,118.27c0,11.1,7.99,21.43,21.1,21.43s21.1-10.33,21.1-21.43-7.88-21.43-21.1-21.43-21.1,10.44-21.1,21.43Z"/>
          <path class="cls-2" d="M1566.41,147.41c-19.51,0-30.04-15.02-30.04-29.15s10.53-29.15,30.04-29.15,30.04,15.02,30.04,29.15-10.53,29.15-30.04,29.15ZM1566.41,90.12c-18.86,0-29.04,14.5-29.04,28.15s10.18,28.15,29.04,28.15,29.04-14.5,29.04-28.15-10.18-28.15-29.04-28.15ZM1566.41,140.2c-14.03,0-21.6-11.3-21.6-21.93,0-14.24,11.13-21.93,21.6-21.93,14.03,0,21.6,11.3,21.6,21.93s-7.57,21.93-21.6,21.93ZM1566.41,97.33c-13.38,0-20.6,10.78-20.6,20.93s7.22,20.93,20.6,20.93,20.6-10.78,20.6-20.93-7.22-20.93-20.6-20.93Z"/>
        </g>
        <g>
          <path class="cls-2" d="M1640.13,98.72h-2.33c-11.99,0-19.32,8.11-19.32,20.99v25.87h-8.66v-54.63h8.33v13.55c2.67-9.88,11.21-13.99,21.99-13.99v8.22Z"/>
          <path class="cls-2" d="M1618.98,146.08h-9.66v-55.63h9.33v11.1c3.26-7.47,10.77-11.54,21.49-11.54h.5v9.22h-2.83c-11.61,0-18.82,7.85-18.82,20.49v26.37ZM1610.32,145.08h7.66v-25.37c0-13.25,7.59-21.49,19.82-21.49h1.83v-7.21c-8.05.1-18.03,2.59-21,13.62l-.98,3.64v-16.82h-7.33v53.63Z"/>
        </g>
        <g>
          <path class="cls-2" d="M1705.31,90.95v54.63h-8.33v-10.99c-3.33,6.11-11.77,12.33-22.87,12.33-16.77,0-27.98-13.55-27.98-28.65s11.21-28.65,27.98-28.65c11.1,0,19.76,6.11,22.76,12.44v-11.1h8.44ZM1675.56,139.81c10.55,0,21.1-7.77,21.1-21.54s-10.55-21.54-21.1-21.54c-12.66,0-20.76,9.88-20.76,21.54s8.11,21.54,20.76,21.54Z"/>
          <path class="cls-2" d="M1674.11,147.41c-17.83,0-28.48-14.82-28.48-29.15s10.65-29.15,28.48-29.15c10.71,0,18.7,5.43,22.26,11.01v-9.68h9.44v55.63h-9.33v-9.72c-3.89,5.72-11.94,11.05-22.37,11.05ZM1674.11,90.12c-17.2,0-27.48,14.31-27.48,28.15s10.28,28.15,27.48,28.15c10.95,0,19.16-6.06,22.43-12.06l.94-1.72v12.45h7.33v-53.63h-7.44v12.83l-.95-2.01c-2.77-5.85-10.94-12.15-22.31-12.15ZM1675.56,140.31c-12.32,0-21.26-9.27-21.26-22.04s8.94-22.04,21.26-22.04c10.47,0,21.6,7.73,21.6,22.04s-11.13,22.04-21.6,22.04ZM1675.56,97.22c-11.74,0-20.26,8.85-20.26,21.04s8.52,21.04,20.26,21.04c9.98,0,20.6-7.37,20.6-21.04s-10.61-21.04-20.6-21.04Z"/>
        </g>
        <g>
          <path class="cls-2" d="M1726.52,130.04c1.22,6.55,6.11,10.44,13.55,10.44s12.44-3.77,12.44-9.66c0-4.77-3-7.33-8.33-8.88l-8.88-2.55c-7.99-2.22-13.99-6.22-13.99-14.77,0-8.99,7.66-14.99,18.1-14.99s16.99,6.33,18.21,15.32h-7.55c-.56-4.66-3.89-8.88-10.66-8.88-6.11,0-10.1,3.22-10.1,8.33s3,6.55,8.33,8.11l9.88,2.89c8.33,2.44,12.99,7.11,12.99,14.88,0,10.22-9.77,16.66-20.54,16.66s-19.54-5.44-21.1-16.88h7.66Z"/>
          <path class="cls-2" d="M1739.95,147.41c-12.05,0-20.12-6.47-21.59-17.31l-.08-.57h8.65l.08.41c1.19,6.37,5.95,10.03,13.06,10.03s11.94-3.77,11.94-9.16c0-4.2-2.46-6.8-7.97-8.4l-8.88-2.55c-9.79-2.72-14.35-7.57-14.35-15.25,0-9.12,7.65-15.49,18.6-15.49,10.37,0,17.37,5.89,18.71,15.76l.08.57h-8.57l-.05-.44c-.49-4.08-3.41-8.44-10.16-8.44-5.83,0-9.6,3.07-9.6,7.83s2.46,6.02,7.97,7.63l9.88,2.89c8.98,2.63,13.35,7.66,13.35,15.36,0,11.14-10.84,17.16-21.04,17.16ZM1719.44,130.54c1.6,9.96,9.23,15.88,20.52,15.88,9.72,0,20.04-5.66,20.04-16.16,0-7.2-4.13-11.91-12.63-14.4l-9.88-2.89c-4.92-1.44-8.69-2.98-8.69-8.59s4.16-8.83,10.6-8.83c7.17,0,10.41,4.51,11.1,8.88h6.54c-1.46-9.11-7.86-14.32-17.63-14.32-10.36,0-17.6,5.96-17.6,14.49,0,7.16,4.33,11.7,13.62,14.29l8.89,2.56c5.93,1.73,8.69,4.7,8.69,9.36,0,5.98-5.32,10.16-12.94,10.16s-12.55-3.8-13.96-10.44h-6.67Z"/>
        </g>
      </g>
    </g>
  </g>
</svg>