<?xml version="1.0" encoding="UTF-8"?>
<svg id="Layer_1" data-name="Layer 1" xmlns="http://www.w3.org/2000/svg" viewBox="0 0 2236.8 223.67">
  <defs>
    <style>
      .cls-1, .cls-2 {
        fill: #a282ef;
      }

      .cls-2 {
        stroke: #a282ef;
        stroke-miterlimit: 10;
      }

      .cls-3 {
        fill: #fff;
      }
    </style>
  </defs>
  <ellipse class="cls-1" cx="1666.28" cy="74.69" rx="14.68" ry="14.97"/>
  <path class="cls-1" d="M202.11,128.06l-13.97-67.82c-1.44-6.97-8.25-11.45-15.22-10.02l-51.71,10.65c-6.97,1.44-11.46,8.25-10.02,15.22l13.97,67.82c1.44,6.97,8.25,11.46,15.22,10.02l51.71-10.65c6.97-1.43,11.45-8.25,10.02-15.22ZM125.06,102.32c-.72-3.47,1.52-6.86,4.99-7.58,3.47-.71,6.86,1.52,7.58,4.99.71,3.47-1.52,6.86-4.99,7.58-3.47.71-6.86-1.52-7.58-4.99ZM128.33,118.21c-.71-3.47,1.52-6.86,4.99-7.58,3.47-.71,6.86,1.52,7.58,4.99.71,3.47-1.52,6.86-4.99,7.58-3.47.71-6.86-1.52-7.58-4.99ZM139.3,139.67c-3.47.71-6.86-1.52-7.58-4.99s1.52-6.86,4.99-7.58c3.47-.71,6.86,1.52,7.58,4.99.72,3.47-1.52,6.86-4.99,7.58ZM146.92,91.27c3.47-.71,6.86,1.52,7.58,4.99.71,3.47-1.52,6.86-4.99,7.58-3.47.71-6.86-1.52-7.58-4.99-.72-3.47,1.52-6.86,4.99-7.58ZM145.2,114.73c-.71-3.47,1.52-6.86,4.99-7.58,3.47-.71,6.86,1.52,7.58,4.99.71,3.47-1.52,6.86-4.99,7.58-3.47.71-6.86-1.52-7.58-4.99ZM156.17,136.2c-3.47.71-6.86-1.52-7.58-4.99-.71-3.47,1.52-6.86,4.99-7.58,3.47-.71,6.86,1.52,7.58,4.99.72,3.47-1.52,6.86-4.99,7.58ZM163.8,87.79c3.47-.71,6.86,1.52,7.58,4.99.71,3.47-1.52,6.86-4.99,7.58-3.47.71-6.86-1.52-7.58-4.99-.72-3.47,1.52-6.86,4.99-7.58ZM162.08,111.25c-.71-3.47,1.52-6.86,4.99-7.58,3.47-.71,6.86,1.52,7.58,4.99.71,3.47-1.52,6.86-4.99,7.58-3.47.71-6.86-1.52-7.58-4.99ZM173.05,132.72c-3.47.71-6.86-1.52-7.58-4.99-.71-3.47,1.52-6.86,4.99-7.58,3.47-.71,6.86,1.52,7.58,4.99.72,3.47-1.52,6.86-4.99,7.58ZM124.53,84.41c-2.3.47-4.55-1.01-5.02-3.31l-1.01-4.88c-.47-2.3,1.01-4.55,3.31-5.02l54.07-11.14c2.3-.47,4.55,1.01,5.02,3.31l1,4.88c.47,2.3-1.01,4.55-3.31,5.02l-54.07,11.14ZM188.14,129.61c-3.47.71-6.86-1.52-7.58-4.99-.72-3.47,1.52-6.86,4.99-7.58,3.47-.71,6.86,1.52,7.58,4.99.71,3.47-1.52,6.86-4.99,7.58Z"/>
  <g>
    <g>
      <path class="cls-3" d="M272.74,147.77V45.02h63.85v16.03h-45.57v27.44h44.3v15.89h-44.3v43.39h-18.28Z"/>
      <path class="cls-3" d="M360.22,44.96c6.05,0,10.55,4.64,10.55,10.41s-4.5,10.41-10.55,10.41-10.55-4.5-10.55-10.41,4.64-10.41,10.55-10.41ZM351.36,147.77v-70.18h17.72v70.18h-17.72Z"/>
      <path class="cls-3" d="M406.77,147.77h-17.72v-70.18h17.16v11.95c3.23-8.16,12.38-13.64,23.35-13.64,16.88,0,26.3,12.38,26.3,29.82v42.05h-17.72v-39.1c0-9.99-4.5-17.3-15.05-17.3-9.7,0-16.31,7.03-16.31,17.16v39.24Z"/>
      <path class="cls-3" d="M492.28,147.77h-17.72v-70.18h17.16v11.95c3.23-8.16,12.38-13.64,23.35-13.64,16.88,0,26.3,12.38,26.3,29.82v42.05h-17.72v-39.1c0-9.99-4.5-17.3-15.05-17.3-9.7,0-16.31,7.03-16.31,17.16v39.24Z"/>
      <path class="cls-3" d="M573.14,118.66c1.13,10.55,7.88,17.72,20.39,17.72,8.58,0,15.19-3.8,18.56-9.14h16.45c-4.78,12.52-18.28,22.22-35.02,22.22-23.91,0-37.83-15.89-37.83-36.85s15.33-36.71,36.99-36.71,36.85,15.33,36.85,36.99v5.77h-56.4ZM573,106.98h39.66c-1.13-10.83-8.3-18.42-19.69-18.42s-18.56,7.03-19.97,18.42Z"/>
      <path class="cls-3" d="M700,89.97v-12.38h17.44v69.2c0,18.14-16.45,31.93-38.25,31.93-18.14,0-32.35-8.02-37.69-24.05h17.58c3.38,6.75,9.99,10.41,19.97,10.41,12.09,0,20.67-6.61,20.67-18.28v-13.64c-4.08,7.03-13.08,12.94-24.61,12.94-20.82,0-34.74-15.61-34.74-35.02s13.92-35.16,34.74-35.16c12.1,0,21.52,6.19,24.89,14.06ZM699.72,111.06c0-12.38-9.56-20.53-21.24-20.53-12.52,0-20.53,8.72-20.53,20.53s8.02,20.39,20.53,20.39c11.67,0,21.24-8.16,21.24-20.39Z"/>
      <path class="cls-3" d="M810.54,77.59v70.18h-17.02v-12.1c-4.08,7.17-13.36,13.78-25.6,13.78-20.82,0-35.44-16.6-35.44-36.71s14.63-36.85,35.44-36.85c12.24,0,21.8,6.33,25.32,13.78v-12.1h17.3ZM771.3,134.83c11.67,0,21.52-8.58,21.52-22.08s-9.85-22.22-21.52-22.22c-12.66,0-21.1,9.99-21.1,22.22s8.44,22.08,21.1,22.08Z"/>
      <path class="cls-3" d="M847.67,147.77h-17.72v-70.18h17.16v11.95c3.23-8.16,12.38-13.64,23.35-13.64,16.88,0,26.3,12.38,26.3,29.82v42.05h-17.72v-39.1c0-9.99-4.5-17.3-15.05-17.3-9.7,0-16.31,7.03-16.31,17.16v39.24Z"/>
      <path class="cls-3" d="M925.58,126.81c.98,6.47,5.2,10.27,12.94,10.27,6.75,0,11.53-3.38,11.53-9,0-4.5-2.39-6.89-7.59-8.3l-10.41-2.81c-12.1-3.09-18.85-9-18.85-20.25,0-12.8,10.97-20.82,24.89-20.82,15.05,0,23.49,8.72,24.89,20.96h-15.05c-.28-4.36-3.23-8.58-9.42-8.58-5.48,0-9.14,2.95-9.14,7.59,0,4.36,2.53,6.05,7.59,7.45l12.52,3.52c11.25,3.09,16.74,9.56,16.74,19.69,0,13.92-13.22,22.92-27.57,22.92s-26.3-6.75-28.13-22.64h15.05Z"/>
    </g>
    <g>
      <path class="cls-2" d="M1081.97,91.86h-8.77c-5.22-9.55-15.1-16.1-28.54-16.1-19.21,0-32.53,14.21-32.53,32.65s13.32,32.65,32.53,32.65c13.44,0,23.32-6.55,28.54-16.1h8.77c-5.66,13.99-19.43,23.87-37.31,23.87-23.98,0-41.42-17.54-41.42-40.42s17.43-40.42,41.42-40.42c17.88,0,31.65,9.88,37.31,23.87Z"/>
      <path class="cls-2" d="M1092.3,119.96c0-14.99,11.44-28.65,29.54-28.65s29.54,13.66,29.54,28.65-11.44,28.65-29.54,28.65-29.54-13.66-29.54-28.65ZM1100.73,119.96c0,11.1,7.99,21.43,21.1,21.43s21.1-10.33,21.1-21.43-7.88-21.43-21.1-21.43-21.1,10.44-21.1,21.43Z"/>
      <path class="cls-2" d="M1173.91,147.27h-8.66v-54.63h8.33v10.66c2.89-7.77,10.77-11.99,20.43-11.99,13.32,0,21.76,10.44,21.76,24.65v31.31h-8.66v-29.65c0-10.77-4.66-18.54-15.77-18.54-10.22,0-17.43,8-17.43,18.32v29.87Z"/>
      <path class="cls-2" d="M1237.53,75.32h8.66v17.32h16.54v7.22h-16.54v30.54c0,7.55,2.44,10.88,9.33,10.88,2.55,0,4.55-.44,6.55-1v7c-1.55.67-5.33,1.33-8.44,1.33-12.77,0-16.1-7.77-16.1-20.99v-27.76h-11.21v-7.22h11.21v-17.32Z"/>
      <path class="cls-2" d="M1329.69,92.64v54.63h-8.33v-10.99c-3.33,6.11-11.77,12.33-22.87,12.33-16.77,0-27.98-13.55-27.98-28.65s11.21-28.65,27.98-28.65c11.1,0,19.76,6.11,22.76,12.44v-11.1h8.44ZM1299.93,141.5c10.55,0,21.1-7.77,21.1-21.54s-10.55-21.54-21.1-21.54c-12.66,0-20.76,9.88-20.76,21.54s8.11,21.54,20.76,21.54Z"/>
      <path class="cls-2" d="M1394.09,66.21h8.66v81.06h-8.33v-10.99c-3.33,6.11-11.77,12.33-22.87,12.33-16.77,0-27.98-13.55-27.98-28.65s11.21-28.65,27.98-28.65c11.1,0,19.54,6.11,22.54,12.44v-37.53ZM1372.99,141.5c10.55,0,21.1-7.77,21.1-21.54s-10.55-21.54-21.1-21.54c-12.66,0-20.76,9.88-20.76,21.54s8.11,21.54,20.76,21.54Z"/>
      <path class="cls-2" d="M1416.62,119.96c0-14.99,11.44-28.65,29.54-28.65s29.54,13.66,29.54,28.65-11.44,28.65-29.54,28.65-29.54-13.66-29.54-28.65ZM1425.06,119.96c0,11.1,7.99,21.43,21.1,21.43s21.1-10.33,21.1-21.43-7.88-21.43-21.1-21.43-21.1,10.44-21.1,21.43Z"/>
      <path class="cls-2" d="M1519.89,100.41h-2.33c-11.99,0-19.32,8.11-19.32,20.99v25.87h-8.66v-54.63h8.33v13.55c2.67-9.88,11.21-13.99,21.99-13.99v8.22Z"/>
      <path class="cls-2" d="M1534.43,123.51c1.33,11.33,8.88,18.43,20.32,18.43,8.55,0,15.1-4.11,18.32-9.33h8.22c-4.11,8.99-14.1,15.99-26.43,15.99-17.99,0-28.98-12.88-28.98-28.65s11.77-28.65,28.54-28.65,28.09,12.44,28.09,28.09v4.11h-48.08ZM1534.32,116.85h40.08c-.89-10.88-8.11-19.1-19.88-19.1-10.88,0-19.1,7.55-20.21,19.1Z"/>
      <path class="cls-2" d="M1599.83,131.73c1.22,6.55,6.11,10.44,13.55,10.44s12.44-3.78,12.44-9.66c0-4.78-3-7.33-8.33-8.88l-8.88-2.55c-7.99-2.22-13.99-6.22-13.99-14.77,0-8.99,7.66-14.99,18.1-14.99s16.99,6.33,18.21,15.32h-7.55c-.56-4.66-3.89-8.88-10.66-8.88-6.11,0-10.1,3.22-10.1,8.33s3,6.55,8.33,8.11l9.88,2.89c8.33,2.44,12.99,7.11,12.99,14.88,0,10.22-9.77,16.66-20.54,16.66s-19.54-5.44-21.1-16.88h7.66Z"/>
    </g>
  </g>
</svg>