<?xml version="1.0" encoding="UTF-8"?>
<svg id="Layer_1" data-name="Layer 1" xmlns="http://www.w3.org/2000/svg" viewBox="0 0 2236.8 223.67">
  <defs>
    <style>
      .cls-1, .cls-2 {
        fill: #7e8eed;
      }

      .cls-3 {
        fill: #fff;
      }

      .cls-2 {
        stroke: #7e8eed;
        stroke-miterlimit: 10;
      }
    </style>
  </defs>
  <ellipse class="cls-1" cx="1778.67" cy="76.31" rx="14.68" ry="14.97"/>
  <g>
    <path class="cls-1" d="M205.55,91.58c-3.46-1.99-7.85.06-10.96,2.57-6.18,4.99-10.65,11.81-13.91,19.07.35-.03.68-.07,1.04-.1,0,0-.45.17-1.23.51-.09.21-.19.41-.28.62.01-.17.02-.34.04-.52-4.57,2.04-18.45,9.17-21.19,21.85l-2.88-.82s.1-19.06,24.11-21.5c1.58-19,2.49-38.05,2.71-57.12.04-3.27-.47-7.34-3.55-8.44-3.39-1.21-7.07,2.15-8.07,5.61-4.23,14.58-4.23,25.21-7.4,39.94-1.9-7.37-2.12-11.87-3.04-18-1.26-8.38-1.32-17.25-2.58-25.63-.34-2.29-.78-4.77-2.47-6.36-2.98-2.81-8.27-1.03-10.46,2.43-2.19,3.46-2.17,7.82-2.08,11.91.23,10.15,2.32,28.27,2.55,38.42-.38-2.16-4.53-13.1-5.07-15.37-3.41-14.23-7.08-24.86-11.57-27.79-.8-.67-1.72-1.11-2.83-1.11-3.54,0-5.29,4.32-5.62,7.85-1.56,16.97,7.87,32.89,10.59,49.71l.06-.55c.05.18.27.91.56,1.81-.17-.34-.36-.73-.62-1.25-4.94-9.81-13.92-30.34-17.98-35.07-1.41-2.01-3.2-3.55-5.59-3.74-.64-.05-1.35.04-1.8.49-.3.3-.45.71-.54,1.13-2.04,3.3-1.17,10.86,1.07,20.96.58,3.93,2.14,7.81,3,11.68,2.14,9.72,4.76,19.45,9.55,28.17,4.79,8.72,11.98,16.43,21.19,20.2,3.53,1.45,7.28,2.29,11.02,3.05,4.13.84,8.34,1.58,12.54,1.29,9.01-.63,17.14-6.04,22.98-12.93,5.83-6.89,9.69-15.2,13.39-23.44,2.15-4.79,4.27-9.6,6.36-14.42,1.1-2.54,2.22-5.16,2.33-7.94.12-2.77-.98-5.77-3.38-7.15ZM133.26,114.53c-.02-.09-.04-.15-.05-.23.06.21.09.32.05.23Z"/>
    <g>
      <g>
        <path class="cls-3" d="M272.74,150.87V48.12h63.85v16.03h-45.57v27.44h44.3v15.89h-44.3v43.39h-18.28Z"/>
        <path class="cls-3" d="M360.22,48.06c6.05,0,10.55,4.64,10.55,10.41s-4.5,10.41-10.55,10.41-10.55-4.5-10.55-10.41,4.64-10.41,10.55-10.41ZM351.36,150.87v-70.18h17.72v70.18h-17.72Z"/>
        <path class="cls-3" d="M406.77,150.87h-17.72v-70.18h17.16v11.95c3.23-8.16,12.38-13.64,23.35-13.64,16.88,0,26.3,12.38,26.3,29.82v42.05h-17.72v-39.1c0-9.99-4.5-17.3-15.05-17.3-9.7,0-16.31,7.03-16.31,17.16v39.24Z"/>
        <path class="cls-3" d="M492.28,150.87h-17.72v-70.18h17.16v11.95c3.23-8.16,12.38-13.64,23.35-13.64,16.88,0,26.3,12.38,26.3,29.82v42.05h-17.72v-39.1c0-9.99-4.5-17.3-15.05-17.3-9.7,0-16.31,7.03-16.31,17.16v39.24Z"/>
        <path class="cls-3" d="M573.14,121.76c1.13,10.55,7.88,17.72,20.39,17.72,8.58,0,15.19-3.8,18.56-9.14h16.45c-4.78,12.52-18.28,22.22-35.02,22.22-23.91,0-37.83-15.89-37.83-36.85s15.33-36.71,36.99-36.71,36.85,15.33,36.85,36.99v5.77h-56.4ZM573,110.08h39.66c-1.13-10.83-8.3-18.42-19.69-18.42s-18.56,7.03-19.97,18.42Z"/>
        <path class="cls-3" d="M700,93.06v-12.38h17.44v69.2c0,18.14-16.45,31.93-38.25,31.93-18.14,0-32.35-8.02-37.69-24.05h17.58c3.38,6.75,9.99,10.41,19.97,10.41,12.09,0,20.67-6.61,20.67-18.28v-13.64c-4.08,7.03-13.08,12.94-24.61,12.94-20.82,0-34.74-15.61-34.74-35.02s13.92-35.16,34.74-35.16c12.1,0,21.52,6.19,24.89,14.06ZM699.72,114.16c0-12.38-9.56-20.53-21.24-20.53-12.52,0-20.53,8.72-20.53,20.53s8.02,20.39,20.53,20.39c11.67,0,21.24-8.16,21.24-20.39Z"/>
        <path class="cls-3" d="M810.54,80.69v70.18h-17.02v-12.1c-4.08,7.17-13.36,13.78-25.6,13.78-20.82,0-35.44-16.6-35.44-36.71s14.63-36.85,35.44-36.85c12.24,0,21.8,6.33,25.32,13.78v-12.1h17.3ZM771.3,137.93c11.67,0,21.52-8.58,21.52-22.08s-9.85-22.22-21.52-22.22c-12.66,0-21.1,9.99-21.1,22.22s8.44,22.08,21.1,22.08Z"/>
        <path class="cls-3" d="M847.67,150.87h-17.72v-70.18h17.16v11.95c3.23-8.16,12.38-13.64,23.35-13.64,16.88,0,26.3,12.38,26.3,29.82v42.05h-17.72v-39.1c0-9.99-4.5-17.3-15.05-17.3-9.7,0-16.31,7.03-16.31,17.16v39.24Z"/>
        <path class="cls-3" d="M925.58,129.91c.98,6.47,5.2,10.27,12.94,10.27,6.75,0,11.53-3.38,11.53-9,0-4.5-2.39-6.89-7.59-8.3l-10.41-2.81c-12.1-3.09-18.85-9-18.85-20.25,0-12.8,10.97-20.82,24.89-20.82,15.05,0,23.49,8.72,24.89,20.96h-15.05c-.28-4.36-3.23-8.58-9.42-8.58-5.48,0-9.14,2.95-9.14,7.59,0,4.36,2.53,6.05,7.59,7.45l12.52,3.52c11.25,3.09,16.74,9.56,16.74,19.69,0,13.92-13.22,22.92-27.57,22.92s-26.3-6.75-28.13-22.64h15.05Z"/>
      </g>
      <g>
        <path class="cls-2" d="M1046,151.09l-30.42-60.07v58.96h-7.88v-77.73h6.88l31.42,63.29,31.42-63.29h6.88v77.73h-7.88v-58.96l-30.42,60.07Z"/>
        <path class="cls-2" d="M1158.47,95.35v54.63h-8.33v-10.99c-3.33,6.11-11.77,12.33-22.87,12.33-16.77,0-27.98-13.55-27.98-28.65s11.21-28.65,27.98-28.65c11.1,0,19.76,6.11,22.76,12.44v-11.1h8.44ZM1128.72,144.2c10.55,0,21.1-7.77,21.1-21.54s-10.55-21.54-21.1-21.54c-12.66,0-20.76,9.88-20.76,21.54s8.11,21.54,20.76,21.54Z"/>
        <path class="cls-2" d="M1184.9,149.98h-8.66v-54.63h8.33v10.66c2.89-7.77,10.77-11.99,20.43-11.99,13.32,0,21.76,10.44,21.76,24.65v31.31h-8.66v-29.65c0-10.77-4.66-18.54-15.77-18.54-10.22,0-17.43,7.99-17.43,18.32v29.87Z"/>
        <path class="cls-2" d="M1284.83,95.35h8.66v54.63h-8.33v-10.66c-3.22,7.66-10.55,11.99-20.21,11.99-13.32,0-21.54-10.44-21.54-24.65v-31.31h8.66v29.87c0,10.77,4.44,18.54,15.55,18.54,10.22,0,17.21-7.99,17.21-18.32v-30.09Z"/>
        <path class="cls-2" d="M1313.69,102.56h-10.22v-7.22h10.22v-7.77c0-13.66,5.89-19.99,18.88-19.99,2.33,0,5.44.33,6.77.89v7.22c-1.11-.44-3.55-.78-5.44-.78-8.66,0-11.55,3.78-11.55,12.77v7.66h16.43v7.22h-16.43v47.41h-8.66v-47.41Z"/>
        <path class="cls-2" d="M1402.3,95.35v54.63h-8.33v-10.99c-3.33,6.11-11.77,12.33-22.87,12.33-16.77,0-27.98-13.55-27.98-28.65s11.21-28.65,27.98-28.65c11.1,0,19.76,6.11,22.76,12.44v-11.1h8.44ZM1372.55,144.2c10.55,0,21.1-7.77,21.1-21.54s-10.55-21.54-21.1-21.54c-12.66,0-20.76,9.88-20.76,21.54s8.11,21.54,20.76,21.54Z"/>
        <path class="cls-2" d="M1472.81,112.89h-8.44c-3.11-6.55-9.44-11.66-19.1-11.66-12.99,0-20.54,10.33-20.54,21.43s7.55,21.43,20.54,21.43c9.99,0,15.99-5,19.1-11.66h8.44c-3.55,10.66-13.66,18.88-27.43,18.88-17.77,0-29.2-12.99-29.2-28.65s11.44-28.65,29.2-28.65c13.77,0,23.87,8.22,27.43,18.88Z"/>
        <path class="cls-2" d="M1490.9,78.03h8.66v17.32h16.54v7.22h-16.54v30.54c0,7.55,2.44,10.88,9.33,10.88,2.55,0,4.55-.44,6.55-1v7c-1.55.67-5.33,1.33-8.44,1.33-12.77,0-16.1-7.77-16.1-20.99v-27.76h-11.21v-7.22h11.21v-17.32Z"/>
        <path class="cls-2" d="M1569.18,95.35h8.66v54.63h-8.33v-10.66c-3.22,7.66-10.55,11.99-20.21,11.99-13.32,0-21.54-10.44-21.54-24.65v-31.31h8.66v29.87c0,10.77,4.44,18.54,15.55,18.54,10.22,0,17.21-7.99,17.21-18.32v-30.09Z"/>
        <path class="cls-2" d="M1625.92,103.12h-2.33c-11.99,0-19.32,8.11-19.32,20.99v25.87h-8.66v-54.63h8.33v13.55c2.67-9.88,11.21-13.99,21.99-13.99v8.22Z"/>
        <path class="cls-2" d="M1691.1,95.35v54.63h-8.33v-10.99c-3.33,6.11-11.77,12.33-22.87,12.33-16.77,0-27.98-13.55-27.98-28.65s11.21-28.65,27.98-28.65c11.1,0,19.76,6.11,22.76,12.44v-11.1h8.44ZM1661.34,144.2c10.55,0,21.1-7.77,21.1-21.54s-10.55-21.54-21.1-21.54c-12.66,0-20.76,9.88-20.76,21.54s8.11,21.54,20.76,21.54Z"/>
        <path class="cls-2" d="M1712.31,134.43c1.22,6.55,6.11,10.44,13.55,10.44s12.44-3.77,12.44-9.66c0-4.77-3-7.33-8.33-8.88l-8.88-2.55c-7.99-2.22-13.99-6.22-13.99-14.77,0-8.99,7.66-14.99,18.1-14.99s16.99,6.33,18.21,15.32h-7.55c-.56-4.66-3.89-8.88-10.66-8.88-6.11,0-10.1,3.22-10.1,8.33s3,6.55,8.33,8.11l9.88,2.89c8.33,2.44,12.99,7.11,12.99,14.88,0,10.22-9.77,16.66-20.54,16.66s-19.54-5.44-21.1-16.88h7.66Z"/>
      </g>
    </g>
  </g>
</svg>