<?xml version="1.0" encoding="UTF-8"?>
<svg id="Layer_1" data-name="Layer 1" xmlns="http://www.w3.org/2000/svg" viewBox="0 0 2236.8 223.67">
  <defs>
    <style>
      .cls-1 {
        stroke: #f95440;
        stroke-miterlimit: 10;
      }

      .cls-1, .cls-2 {
        fill: #f95440;
      }

      .cls-3 {
        fill: #fff;
      }
    </style>
  </defs>
  <ellipse class="cls-2" cx="1292.79" cy="75.05" rx="14.68" ry="14.97"/>
  <path class="cls-2" d="M153.2,106.89v.09s-33.82,5.84-33.82,5.84l-.04.04v24.33c0,4.12,3.34,7.45,7.45,7.45h57.64c4.12,0,7.45-3.34,7.45-7.45v-28.45c0-1.02.83-1.85,1.85-1.85h13.85c1.59,0,2.44-1.88,1.39-3.07l-52.82-59.99c-.75-.86-2.1-.83-2.82.05l-49.05,59.99c-.99,1.21-.13,3.02,1.43,3.02h47.49Z"/>
  <g>
    <polygon class="cls-2" points="163.11 79.22 163.11 56.03 150.19 56.03 150.19 61.28 163.11 79.22"/>
    <polygon class="cls-2" points="150.19 67.04 150.19 87.77 163.11 87.77 163.11 81.64 150.19 67.04"/>
  </g>
  <g>
    <g>
      <path class="cls-3" d="M272.74,149.52V46.77h63.85v16.03h-45.57v27.44h44.3v15.89h-44.3v43.39h-18.28Z"/>
      <path class="cls-3" d="M360.22,46.71c6.05,0,10.55,4.64,10.55,10.41s-4.5,10.41-10.55,10.41-10.55-4.5-10.55-10.41,4.64-10.41,10.55-10.41ZM351.36,149.52v-70.18h17.72v70.18h-17.72Z"/>
      <path class="cls-3" d="M406.77,149.52h-17.72v-70.18h17.16v11.95c3.23-8.16,12.38-13.64,23.35-13.64,16.88,0,26.3,12.38,26.3,29.82v42.05h-17.72v-39.1c0-9.99-4.5-17.3-15.05-17.3-9.7,0-16.31,7.03-16.31,17.16v39.24Z"/>
      <path class="cls-3" d="M492.28,149.52h-17.72v-70.18h17.16v11.95c3.23-8.16,12.38-13.64,23.35-13.64,16.88,0,26.3,12.38,26.3,29.82v42.05h-17.72v-39.1c0-9.99-4.5-17.3-15.05-17.3-9.7,0-16.31,7.03-16.31,17.16v39.24Z"/>
      <path class="cls-3" d="M573.14,120.41c1.13,10.55,7.88,17.72,20.39,17.72,8.58,0,15.19-3.8,18.56-9.14h16.45c-4.78,12.52-18.28,22.22-35.02,22.22-23.91,0-37.83-15.89-37.83-36.85s15.33-36.71,36.99-36.71,36.85,15.33,36.85,36.99v5.77h-56.4ZM573,108.74h39.66c-1.13-10.83-8.3-18.42-19.69-18.42s-18.56,7.03-19.97,18.42Z"/>
      <path class="cls-3" d="M700,91.72v-12.38h17.44v69.2c0,18.14-16.45,31.93-38.25,31.93-18.14,0-32.35-8.02-37.69-24.05h17.58c3.38,6.75,9.99,10.41,19.97,10.41,12.09,0,20.67-6.61,20.67-18.28v-13.64c-4.08,7.03-13.08,12.94-24.61,12.94-20.82,0-34.74-15.61-34.74-35.02s13.92-35.16,34.74-35.16c12.1,0,21.52,6.19,24.89,14.06ZM699.72,112.82c0-12.38-9.56-20.53-21.24-20.53-12.52,0-20.53,8.72-20.53,20.53s8.02,20.39,20.53,20.39c11.67,0,21.24-8.16,21.24-20.39Z"/>
      <path class="cls-3" d="M810.54,79.34v70.18h-17.02v-12.1c-4.08,7.17-13.36,13.78-25.6,13.78-20.82,0-35.44-16.6-35.44-36.71s14.63-36.85,35.44-36.85c12.24,0,21.8,6.33,25.32,13.78v-12.1h17.3ZM771.3,136.58c11.67,0,21.52-8.58,21.52-22.08s-9.85-22.22-21.52-22.22c-12.66,0-21.1,9.99-21.1,22.22s8.44,22.08,21.1,22.08Z"/>
      <path class="cls-3" d="M847.67,149.52h-17.72v-70.18h17.16v11.95c3.23-8.16,12.38-13.64,23.35-13.64,16.88,0,26.3,12.38,26.3,29.82v42.05h-17.72v-39.1c0-9.99-4.5-17.3-15.05-17.3-9.7,0-16.31,7.03-16.31,17.16v39.24Z"/>
      <path class="cls-3" d="M925.58,128.57c.98,6.47,5.2,10.27,12.94,10.27,6.75,0,11.53-3.38,11.53-9,0-4.5-2.39-6.89-7.59-8.3l-10.41-2.81c-12.1-3.09-18.85-9-18.85-20.25,0-12.8,10.97-20.82,24.89-20.82,15.05,0,23.49,8.72,24.89,20.96h-15.05c-.28-4.36-3.23-8.58-9.42-8.58-5.48,0-9.14,2.95-9.14,7.59,0,4.36,2.53,6.05,7.59,7.45l12.52,3.52c11.25,3.09,16.74,9.56,16.74,19.69,0,13.92-13.22,22.92-27.57,22.92s-26.3-6.75-28.13-22.64h15.05Z"/>
    </g>
    <g>
      <path class="cls-1" d="M1044.55,67.81c23.87,0,41.31,17.54,41.31,40.42s-17.43,40.42-41.31,40.42-41.31-17.43-41.31-40.42,17.54-40.42,41.31-40.42ZM1012.13,108.22c0,18.1,13.21,32.64,32.42,32.64s32.42-14.55,32.42-32.64-13.1-32.65-32.42-32.65-32.42,14.43-32.42,32.65Z"/>
      <path class="cls-1" d="M1101.4,69.36h6.88l50.74,63.85v-63.85h8.22v77.73h-6.88l-50.74-63.85v63.85h-8.22v-77.73Z"/>
      <path class="cls-1" d="M1252.52,91.35c-5.22-9.44-14.88-15.77-28.2-15.77-19.32,0-32.65,13.66-32.65,32.65s13.66,32.87,32.65,32.87c17.21,0,27.32-10.1,30.98-22.99h-35.64v-7.33h45.08c-1.33,20.76-16.54,37.86-40.42,37.86s-41.53-17.54-41.53-40.42,17.21-40.42,41.53-40.42c17.32,0,30.54,8.66,37.09,23.54h-8.88Z"/>
    </g>
  </g>
</svg>