<?xml version="1.0" encoding="UTF-8"?>
<svg id="Layer_1" data-name="Layer 1" xmlns="http://www.w3.org/2000/svg" viewBox="0 0 2236.8 223.67">
  <defs>
    <style>
      .cls-1, .cls-2 {
        fill: #ba1c73;
      }

      .cls-3 {
        fill: #fff;
      }

      .cls-2 {
        stroke: #ba1c73;
        stroke-miterlimit: 10;
      }
    </style>
  </defs>
  <ellipse class="cls-1" cx="1325.54" cy="72.91" rx="14.68" ry="14.97"/>
  <path class="cls-1" d="M195.25,75.31h-16.61v-15.63c0-7.63-6.19-13.82-13.82-13.82h-16.35c-7.63,0-13.82,6.19-13.82,13.82v7.88l43.77,7.51-43.77-.47v.7h-16.61c-7.75,0-14.04,6.29-14.04,14.04v15.91c0,7.75,6.29,14.04,14.04,14.04h16.61v15.63c0,7.63,6.19,13.82,13.82,13.82h16.35c7.63,0,13.82-6.19,13.82-13.82v-15.63h16.61c7.75,0,14.04-6.29,14.04-14.04v-15.91c0-7.75-6.29-14.04-14.04-14.04Z"/>
  <g>
    <g>
      <path class="cls-3" d="M272.74,147.77V45.02h63.85v16.03h-45.57v27.44h44.3v15.89h-44.3v43.39h-18.28Z"/>
      <path class="cls-3" d="M360.22,44.96c6.05,0,10.55,4.64,10.55,10.41s-4.5,10.41-10.55,10.41-10.55-4.5-10.55-10.41,4.64-10.41,10.55-10.41ZM351.36,147.77v-70.18h17.72v70.18h-17.72Z"/>
      <path class="cls-3" d="M406.77,147.77h-17.72v-70.18h17.16v11.95c3.23-8.16,12.38-13.64,23.35-13.64,16.88,0,26.3,12.38,26.3,29.82v42.05h-17.72v-39.1c0-9.99-4.5-17.3-15.05-17.3-9.7,0-16.31,7.03-16.31,17.16v39.24Z"/>
      <path class="cls-3" d="M492.28,147.77h-17.72v-70.18h17.16v11.95c3.23-8.16,12.38-13.64,23.35-13.64,16.88,0,26.3,12.38,26.3,29.82v42.05h-17.72v-39.1c0-9.99-4.5-17.3-15.05-17.3-9.7,0-16.31,7.03-16.31,17.16v39.24Z"/>
      <path class="cls-3" d="M573.14,118.66c1.13,10.55,7.88,17.72,20.39,17.72,8.58,0,15.19-3.8,18.56-9.14h16.45c-4.78,12.52-18.28,22.22-35.02,22.22-23.91,0-37.83-15.89-37.83-36.85s15.33-36.71,36.99-36.71,36.85,15.33,36.85,36.99v5.77h-56.4ZM573,106.98h39.66c-1.13-10.83-8.3-18.42-19.69-18.42s-18.56,7.03-19.97,18.42Z"/>
      <path class="cls-3" d="M700,89.97v-12.38h17.44v69.2c0,18.14-16.45,31.93-38.25,31.93-18.14,0-32.35-8.02-37.69-24.05h17.58c3.38,6.75,9.99,10.41,19.97,10.41,12.09,0,20.67-6.61,20.67-18.28v-13.64c-4.08,7.03-13.08,12.94-24.61,12.94-20.82,0-34.74-15.61-34.74-35.02s13.92-35.16,34.74-35.16c12.1,0,21.52,6.19,24.89,14.06ZM699.72,111.06c0-12.38-9.56-20.53-21.24-20.53-12.52,0-20.53,8.72-20.53,20.53s8.02,20.39,20.53,20.39c11.67,0,21.24-8.16,21.24-20.39Z"/>
      <path class="cls-3" d="M810.54,77.59v70.18h-17.02v-12.1c-4.08,7.17-13.36,13.78-25.6,13.78-20.82,0-35.44-16.6-35.44-36.71s14.63-36.85,35.44-36.85c12.24,0,21.8,6.33,25.32,13.78v-12.1h17.3ZM771.3,134.83c11.67,0,21.52-8.58,21.52-22.08s-9.85-22.22-21.52-22.22c-12.66,0-21.1,9.99-21.1,22.22s8.44,22.08,21.1,22.08Z"/>
      <path class="cls-3" d="M847.67,147.77h-17.72v-70.18h17.16v11.95c3.23-8.16,12.38-13.64,23.35-13.64,16.88,0,26.3,12.38,26.3,29.82v42.05h-17.72v-39.1c0-9.99-4.5-17.3-15.05-17.3-9.7,0-16.31,7.03-16.31,17.16v39.24Z"/>
      <path class="cls-3" d="M925.58,126.81c.98,6.47,5.2,10.27,12.94,10.27,6.75,0,11.53-3.38,11.53-9,0-4.5-2.39-6.89-7.59-8.3l-10.41-2.81c-12.1-3.09-18.85-9-18.85-20.25,0-12.8,10.97-20.82,24.89-20.82,15.05,0,23.49,8.72,24.89,20.96h-15.05c-.28-4.36-3.23-8.58-9.42-8.58-5.48,0-9.14,2.95-9.14,7.59,0,4.36,2.53,6.05,7.59,7.45l12.52,3.52c11.25,3.09,16.74,9.56,16.74,19.69,0,13.92-13.22,22.92-27.57,22.92s-26.3-6.75-28.13-22.64h15.05Z"/>
    </g>
    <g>
      <path class="cls-2" d="M1011.8,125.68c1.67,9.44,7.99,15.77,18.88,15.77s17.77-6.55,17.77-14.88-5.44-12.44-13.55-14.77l-9.66-2.78c-11.44-3.33-19.54-9.33-19.54-20.54,0-12.44,10.44-20.65,24.1-20.65s22.99,9.1,23.98,21.1h-8.11c-1-8.11-6.77-13.88-15.99-13.88s-15.43,5-15.43,13.21,5.77,10.99,13.99,13.32l9.22,2.78c12.1,3.44,19.54,9.66,19.54,21.65,0,13.33-11.21,22.65-26.43,22.65s-25.21-9.33-27.2-22.99h8.44Z"/>
      <path class="cls-2" d="M1126.38,92.48v54.63h-8.33v-10.99c-3.33,6.11-11.77,12.33-22.87,12.33-16.77,0-27.98-13.55-27.98-28.65s11.21-28.65,27.98-28.65c11.1,0,19.76,6.11,22.76,12.44v-11.1h8.44ZM1096.63,141.33c10.55,0,21.1-7.77,21.1-21.54s-10.55-21.54-21.1-21.54c-12.66,0-20.76,9.88-20.76,21.54s8.11,21.54,20.76,21.54Z"/>
      <path class="cls-2" d="M1144.15,147.11v-81.06h8.66v81.06h-8.66Z"/>
      <path class="cls-2" d="M1211.44,92.48h8.66v54.63h-8.33v-10.66c-3.22,7.66-10.55,11.99-20.21,11.99-13.32,0-21.54-10.44-21.54-24.65v-31.31h8.66v29.87c0,10.77,4.44,18.54,15.55,18.54,10.22,0,17.21-7.99,17.21-18.32v-30.09Z"/>
      <path class="cls-2" d="M1284.49,66.05h8.66v81.06h-8.33v-10.99c-3.33,6.11-11.77,12.33-22.87,12.33-16.77,0-27.98-13.55-27.98-28.65s11.21-28.65,27.98-28.65c11.1,0,19.54,6.11,22.54,12.44v-37.53ZM1263.4,141.33c10.55,0,21.1-7.77,21.1-21.54s-10.55-21.54-21.1-21.54c-12.66,0-20.76,9.88-20.76,21.54s8.11,21.54,20.76,21.54Z"/>
    </g>
  </g>
</svg>