<?xml version="1.0" encoding="UTF-8"?>
<svg id="Layer_1" data-name="Layer 1" xmlns="http://www.w3.org/2000/svg" viewBox="0 0 2236.8 223.67">
  <defs>
    <style>
      .cls-1, .cls-2 {
        fill: #ff92de;
      }

      .cls-2 {
        stroke: #ff92de;
        stroke-miterlimit: 10;
      }

      .cls-3 {
        fill: #fff;
      }
    </style>
  </defs>
  <ellipse class="cls-1" cx="1497.3" cy="75.39" rx="14.68" ry="14.97"/>
  <g>
    <g>
      <path class="cls-1" d="M167.04,69.03c27.2,0,49.8,4.58,54.41,10.6.56-.74.88-1.5.88-2.27,0-7.11-24.75-12.88-55.29-12.88s-55.29,5.77-55.29,12.88c0,.78.31,1.53.88,2.27,4.61-6.03,27.21-10.6,54.41-10.6Z"/>
      <path class="cls-1" d="M225.31,78.06c-.22,9.28-26.49,16.79-58.88,16.79s-57.28-7.11-58.81-16.06c.05,4.52.56,8.91,1.46,13.15-1.81-.58-3.79-.91-5.87-.91-8.41,0-15.23,5.27-15.23,11.77s6.82,11.77,15.23,11.77c5.13,0,9.66-1.97,12.42-4.97,10.2,18.61,29.14,31.12,50.84,31.12,32.51,0,58.86-28.05,58.86-62.66h-.01ZM103.21,109.37c-4.7,0-8.5-2.94-8.5-6.57s3.81-6.57,8.5-6.57,8.5,2.94,8.5,6.57-3.81,6.57-8.5,6.57Z"/>
    </g>
    <g>
      <g>
        <path class="cls-3" d="M272.74,147.77V45.02h63.85v16.03h-45.57v27.44h44.3v15.89h-44.3v43.39h-18.28Z"/>
        <path class="cls-3" d="M360.22,44.96c6.05,0,10.55,4.64,10.55,10.41s-4.5,10.41-10.55,10.41-10.55-4.5-10.55-10.41,4.64-10.41,10.55-10.41ZM351.36,147.77v-70.18h17.72v70.18h-17.72Z"/>
        <path class="cls-3" d="M406.77,147.77h-17.72v-70.18h17.16v11.95c3.23-8.16,12.38-13.64,23.35-13.64,16.88,0,26.3,12.38,26.3,29.82v42.05h-17.72v-39.1c0-9.99-4.5-17.3-15.05-17.3-9.7,0-16.31,7.03-16.31,17.16v39.24Z"/>
        <path class="cls-3" d="M492.28,147.77h-17.72v-70.18h17.16v11.95c3.23-8.16,12.38-13.64,23.35-13.64,16.88,0,26.3,12.38,26.3,29.82v42.05h-17.72v-39.1c0-9.99-4.5-17.3-15.05-17.3-9.7,0-16.31,7.03-16.31,17.16v39.24Z"/>
        <path class="cls-3" d="M573.14,118.66c1.13,10.55,7.88,17.72,20.39,17.72,8.58,0,15.19-3.8,18.56-9.14h16.45c-4.78,12.52-18.28,22.22-35.02,22.22-23.91,0-37.83-15.89-37.83-36.85s15.33-36.71,36.99-36.71,36.85,15.33,36.85,36.99v5.77h-56.4ZM573,106.98h39.66c-1.13-10.83-8.3-18.42-19.69-18.42s-18.56,7.03-19.97,18.42Z"/>
        <path class="cls-3" d="M700,89.97v-12.38h17.44v69.2c0,18.14-16.45,31.93-38.25,31.93-18.14,0-32.35-8.02-37.69-24.05h17.58c3.38,6.75,9.99,10.41,19.97,10.41,12.09,0,20.67-6.61,20.67-18.28v-13.64c-4.08,7.03-13.08,12.94-24.61,12.94-20.82,0-34.74-15.61-34.74-35.02s13.92-35.16,34.74-35.16c12.1,0,21.52,6.19,24.89,14.06ZM699.72,111.06c0-12.38-9.56-20.53-21.24-20.53-12.52,0-20.53,8.72-20.53,20.53s8.02,20.39,20.53,20.39c11.67,0,21.24-8.16,21.24-20.39Z"/>
        <path class="cls-3" d="M810.54,77.59v70.18h-17.02v-12.1c-4.08,7.17-13.36,13.78-25.6,13.78-20.82,0-35.44-16.6-35.44-36.71s14.63-36.85,35.44-36.85c12.24,0,21.8,6.33,25.32,13.78v-12.1h17.3ZM771.3,134.83c11.67,0,21.52-8.58,21.52-22.08s-9.85-22.22-21.52-22.22c-12.66,0-21.1,9.99-21.1,22.22s8.44,22.08,21.1,22.08Z"/>
        <path class="cls-3" d="M847.67,147.77h-17.72v-70.18h17.16v11.95c3.23-8.16,12.38-13.64,23.35-13.64,16.88,0,26.3,12.38,26.3,29.82v42.05h-17.72v-39.1c0-9.99-4.5-17.3-15.05-17.3-9.7,0-16.31,7.03-16.31,17.16v39.24Z"/>
        <path class="cls-3" d="M925.58,126.81c.98,6.47,5.2,10.27,12.94,10.27,6.75,0,11.53-3.38,11.53-9,0-4.5-2.39-6.89-7.59-8.3l-10.41-2.81c-12.1-3.09-18.85-9-18.85-20.25,0-12.8,10.97-20.82,24.89-20.82,15.05,0,23.49,8.72,24.89,20.96h-15.05c-.28-4.36-3.23-8.58-9.42-8.58-5.48,0-9.14,2.95-9.14,7.59,0,4.36,2.53,6.05,7.59,7.45l12.52,3.52c11.25,3.09,16.74,9.56,16.74,19.69,0,13.92-13.22,22.92-27.57,22.92s-26.3-6.75-28.13-22.64h15.05Z"/>
      </g>
      <g>
        <path class="cls-2" d="M1011.8,125.79c1.67,9.44,7.99,15.77,18.88,15.77s17.77-6.55,17.77-14.88-5.44-12.44-13.55-14.77l-9.66-2.78c-11.44-3.33-19.54-9.33-19.54-20.54,0-12.44,10.44-20.65,24.1-20.65s22.99,9.11,23.98,21.1h-8.11c-1-8.11-6.77-13.88-15.99-13.88s-15.43,5-15.43,13.21,5.77,10.99,13.99,13.32l9.22,2.78c12.1,3.44,19.54,9.66,19.54,21.65,0,13.32-11.21,22.65-26.43,22.65s-25.21-9.33-27.2-22.98h8.44Z"/>
        <path class="cls-2" d="M1075.75,123.46c1.33,11.33,8.88,18.43,20.32,18.43,8.55,0,15.1-4.11,18.32-9.33h8.22c-4.11,8.99-14.1,15.99-26.43,15.99-17.99,0-28.98-12.88-28.98-28.65s11.77-28.65,28.54-28.65,28.09,12.44,28.09,28.09v4.11h-48.08ZM1075.64,116.8h40.08c-.89-10.88-8.11-19.1-19.88-19.1-10.88,0-19.1,7.55-20.21,19.1Z"/>
        <path class="cls-2" d="M1168.02,100.36h-2.33c-11.99,0-19.32,8.11-19.32,20.99v25.87h-8.66v-54.63h8.33v13.55c2.67-9.88,11.21-13.99,21.99-13.99v8.22Z"/>
        <path class="cls-2" d="M1218.21,92.59h8.77l-23.43,54.63h-7.11l-23.43-54.63h8.77l18.21,44.42,18.21-44.42Z"/>
        <path class="cls-2" d="M1242.63,68.27c3.33,0,5.66,2.44,5.66,5.55s-2.33,5.55-5.66,5.55-5.66-2.44-5.66-5.55,2.33-5.55,5.66-5.55ZM1238.3,147.22v-54.63h8.66v54.63h-8.66Z"/>
        <path class="cls-2" d="M1317.8,110.13h-8.44c-3.11-6.55-9.44-11.66-19.1-11.66-12.99,0-20.54,10.33-20.54,21.43s7.55,21.43,20.54,21.43c9.99,0,15.99-5,19.1-11.66h8.44c-3.55,10.66-13.66,18.88-27.43,18.88-17.77,0-29.2-12.99-29.2-28.65s11.44-28.65,29.2-28.65c13.77,0,23.87,8.22,27.43,18.88Z"/>
        <path class="cls-2" d="M1336.01,68.27c3.33,0,5.66,2.44,5.66,5.55s-2.33,5.55-5.66,5.55-5.66-2.44-5.66-5.55,2.33-5.55,5.66-5.55ZM1331.68,147.22v-54.63h8.66v54.63h-8.66Z"/>
        <path class="cls-2" d="M1354.55,119.91c0-14.99,11.44-28.65,29.54-28.65s29.54,13.66,29.54,28.65-11.44,28.65-29.54,28.65-29.54-13.66-29.54-28.65ZM1362.99,119.91c0,11.1,7.99,21.43,21.1,21.43s21.1-10.33,21.1-21.43-7.88-21.43-21.1-21.43-21.1,10.44-21.1,21.43Z"/>
        <path class="cls-2" d="M1430.94,131.68c1.22,6.55,6.11,10.44,13.55,10.44s12.44-3.78,12.44-9.66c0-4.78-3-7.33-8.33-8.88l-8.88-2.55c-7.99-2.22-13.99-6.22-13.99-14.77,0-8.99,7.66-14.99,18.1-14.99s16.99,6.33,18.21,15.32h-7.55c-.56-4.66-3.89-8.88-10.66-8.88-6.11,0-10.1,3.22-10.1,8.33s3,6.55,8.33,8.11l9.88,2.89c8.33,2.44,12.99,7.11,12.99,14.88,0,10.22-9.77,16.66-20.54,16.66s-19.54-5.44-21.1-16.88h7.66Z"/>
      </g>
    </g>
  </g>
</svg>