<?xml version="1.0" encoding="UTF-8"?>
<svg id="Layer_1" data-name="Layer 1" xmlns="http://www.w3.org/2000/svg" viewBox="0 0 533.41 510.64">
  <defs>
    <style>
      .cls-1 {
        fill: #a282ef;
      }
    </style>
  </defs>
  <path class="cls-1" d="M297.76,369.8c0-33.49,26.62-60.63,59.45-60.63,4.22,0,8.34.46,12.32,1.31,9.91-19.05,15.51-40.7,15.51-63.65,0-76.3-61.85-138.15-138.15-138.15s-138.15,61.85-138.15,138.15,61.85,138.15,138.15,138.15c18.06,0,35.3-3.47,51.12-9.77-.15-1.78-.25-3.58-.25-5.41ZM246.89,307.25c-33.37,0-60.42-27.05-60.42-60.42s27.05-60.42,60.42-60.42,60.42,27.05,60.42,60.42-27.05,60.42-60.42,60.42Z"/>
  <ellipse class="cls-1" cx="366.39" cy="375.32" rx="45.27" ry="46.16"/>
</svg>