<?xml version="1.0" encoding="UTF-8"?>
<svg id="Layer_2" xmlns="http://www.w3.org/2000/svg" version="1.1" viewBox="0 0 692.3 465.2">
  <!-- Generator: Adobe Illustrator 29.6.1, SVG Export Plug-In . SVG Version: 2.1.1 Build 9)  -->
  <defs>
    <style>
      .st0 {
        fill: #fff;
      }

      .st1 {
        fill: #04102d;
      }
    </style>
  </defs>
  <g>
    <path class="st0" d="M99.3,272.4v-76.5h47.6v11.9h-33.9v20.2h33v11.8h-33v32.6h-13.6Z"/>
    <path class="st0" d="M164.5,195.8c4.5,0,7.9,3.5,7.9,7.8s-3.4,7.8-7.9,7.8-7.9-3.4-7.9-7.8,3.5-7.8,7.9-7.8ZM157.9,272.4v-52.3h13.2v52.3h-13.2Z"/>
    <path class="st0" d="M199.2,272.4h-13.2v-52.3h12.8v8.9c2.4-6.1,9.2-10.2,17.4-10.2,12.6,0,19.6,9.2,19.6,22.2v31.3h-13.2v-29.1c0-7.4-3.4-12.9-11.2-12.9s-12.2,5.2-12.2,12.8v29.2Z"/>
    <path class="st0" d="M262.9,272.4h-13.2v-52.3h12.8v8.9c2.4-6.1,9.2-10.2,17.4-10.2,12.6,0,19.6,9.2,19.6,22.2v31.3h-13.2v-29.1c0-7.4-3.4-12.9-11.2-12.9s-12.2,5.2-12.2,12.8v29.2Z"/>
    <path class="st0" d="M323.1,250.7c.8,7.9,5.9,13.2,15.2,13.2s11.3-2.8,13.8-6.8h12.3c-3.6,9.3-13.6,16.6-26.1,16.6-17.8,0-28.2-11.8-28.2-27.5s11.4-27.3,27.6-27.3,27.5,11.4,27.5,27.6v4.3h-42ZM323,242h29.5c-.8-8.1-6.2-13.7-14.7-13.7s-13.8,5.2-14.9,13.7Z"/>
    <path class="st0" d="M417.6,229.3v-9.2h13v51.6c0,13.5-12.3,23.8-28.5,23.8s-24.1-6-28.1-17.9h13.1c2.5,5,7.4,7.8,14.9,7.8s15.4-4.9,15.4-13.6v-10.2c-3,5.2-9.7,9.6-18.3,9.6-15.5,0-25.9-11.6-25.9-26.1s10.4-26.2,25.9-26.2,16,4.6,18.5,10.5ZM417.4,245c0-9.2-7.1-15.3-15.8-15.3s-15.3,6.5-15.3,15.3,6,15.2,15.3,15.2,15.8-6.1,15.8-15.2Z"/>
    <path class="st0" d="M500,220.1v52.3h-12.7v-9c-3,5.3-10,10.3-19.1,10.3-15.5,0-26.4-12.4-26.4-27.3s10.9-27.5,26.4-27.5,16.2,4.7,18.9,10.3v-9h12.9ZM470.7,262.7c8.7,0,16-6.4,16-16.5s-7.3-16.6-16-16.6-15.7,7.4-15.7,16.6,6.3,16.5,15.7,16.5Z"/>
    <path class="st0" d="M527.6,272.4h-13.2v-52.3h12.8v8.9c2.4-6.1,9.2-10.2,17.4-10.2,12.6,0,19.6,9.2,19.6,22.2v31.3h-13.2v-29.1c0-7.4-3.4-12.9-11.2-12.9s-12.2,5.2-12.2,12.8v29.2Z"/>
    <path class="st0" d="M585.7,256.7c.7,4.8,3.9,7.6,9.6,7.6s8.6-2.5,8.6-6.7-1.8-5.1-5.7-6.2l-7.8-2.1c-9-2.3-14-6.7-14-15.1s8.2-15.5,18.5-15.5,17.5,6.5,18.5,15.6h-11.2c-.2-3.2-2.4-6.4-7-6.4s-6.8,2.2-6.8,5.7,1.9,4.5,5.7,5.6l9.3,2.6c8.4,2.3,12.5,7.1,12.5,14.7s-9.8,17.1-20.5,17.1-19.6-5-21-16.9h11.2Z"/>
  </g>
  <g>
    <path class="st1" d="M138.3,290.7c23.4,0,39,16.9,39,38.1s-5.1,23.1-14,30l9.6,13.1h-14.7l-5.4-7.3c-3.7,1.5-9.2,2.4-14.5,2.4-23.3,0-39-16.8-39-38.1s15.7-38.1,39-38.1ZM149.3,339.7l6.5,8.9c5-4.9,7.9-12.1,7.9-19.7,0-14.1-9.4-26.4-25.4-26.4s-25.4,12.3-25.4,26.4,9.5,26.4,25.4,26.4,4.8-.3,7-.8l-10.8-14.8h14.8Z"/>
    <path class="st1" d="M224.8,313.3h13.2v54.2h-12.7v-10.7c-2.6,6-9.1,10.7-17.3,10.7-12.6,0-19.4-9.9-19.4-22.8v-31.4h13.2v29.3c0,7.5,2.9,12.9,11,12.9s11.9-5.2,11.9-12.8v-29.5Z"/>
    <path class="st1" d="M259.4,289c4.5,0,7.9,3.5,7.9,7.8s-3.4,7.8-7.9,7.8-7.9-3.4-7.9-7.8,3.5-7.8,7.9-7.8ZM252.8,367.5v-54.2h13.2v54.2h-13.2Z"/>
    <path class="st1" d="M294.1,387.5h-13.2v-74.2h12.7v9c3-5.3,10-10.3,19.1-10.3,15.5,0,26.4,12.4,26.4,27.5s-10.9,27.4-26.4,27.4-15.9-4.6-18.6-10.3v30.9ZM310.1,322.9c-8.6,0-15.9,6.5-15.9,16.6s7.3,16.5,15.9,16.5,15.8-7.3,15.8-16.5-6.4-16.6-15.8-16.6Z"/>
    <path class="st1" d="M363.5,387.5h-13.2v-74.2h12.7v9c3-5.3,10-10.3,19.1-10.3,15.5,0,26.4,12.4,26.4,27.5s-10.9,27.4-26.4,27.4-15.9-4.6-18.6-10.3v30.9ZM379.4,322.9c-8.6,0-15.9,6.5-15.9,16.6s7.3,16.5,15.9,16.5,15.8-7.3,15.8-16.5-6.4-16.6-15.8-16.6Z"/>
    <path class="st1" d="M416.4,340.4c0-14.1,10.7-27.1,28.7-27.1s28.7,13,28.7,27.1-10.7,27-28.7,27-28.7-13-28.7-27ZM429.3,340.4c0,8.4,5.7,16.2,15.8,16.2s15.8-7.8,15.8-16.2-5.7-16.3-15.8-16.3-15.8,7.9-15.8,16.3Z"/>
    <path class="st1" d="M492.6,350.4c.7,4.9,3.9,7.7,9.6,7.7s8.6-2.5,8.6-6.8-1.8-5.2-5.7-6.3l-7.8-2.1c-9-2.3-14-6.8-14-15.3s8.2-15.7,18.6-15.7,17.5,6.6,18.6,15.8h-11.2c-.2-3.3-2.4-6.5-7-6.5s-6.8,2.2-6.8,5.7,1.9,4.6,5.7,5.6l9.3,2.6c8.4,2.3,12.5,7.2,12.5,14.8s-9.9,17.3-20.5,17.3-19.6-5.1-21-17.1h11.2Z"/>
  </g>
  <g>
    <path class="st1" d="M152.3,155.4c0-9.4,7.5-17,16.7-17s2.3.1,3.5.4c2.8-5.3,4.4-11.4,4.4-17.9,0-21.4-17.4-38.8-38.8-38.8s-38.8,17.4-38.8,38.8,17.4,38.8,38.8,38.8,9.9-1,14.3-2.7c0-.5,0-1,0-1.5ZM138.1,137.8c-9.4,0-17-7.6-17-17s7.6-17,17-17,17,7.6,17,17-7.6,17-17,17Z"/>
    <ellipse class="st1" cx="171.6" cy="156.9" rx="12.7" ry="13"/>
  </g>
</svg>