<?xml version="1.0" encoding="utf-8"?>
<!-- Generator: Adobe Illustrator 29.7.1, SVG Export Plug-In . SVG Version: 9.03 Build 0)  -->
<svg version="1.1" baseProfile="tiny" id="Layer_1" xmlns="http://www.w3.org/2000/svg" xmlns:xlink="http://www.w3.org/1999/xlink"
	 x="0px" y="0px" viewBox="0 0 138.6 79.2" overflow="visible" xml:space="preserve">
<g>
	<g>
		<path fill="#FFFFFF" d="M1.1,51.9V31.6h12.6v3.2h-9v5.4h8.8v3.1H4.7V52L1.1,51.9L1.1,51.9z"/>
		<path fill="#FFFFFF" d="M18.4,31.6c1.2,0,2.1,0.9,2.1,2.1s-0.9,2.1-2.1,2.1s-2.1-0.9-2.1-2.1C16.3,32.5,17.2,31.6,18.4,31.6z
			 M16.6,51.9V38h3.5v13.9H16.6z"/>
		<path fill="#FFFFFF" d="M27.6,51.9h-3.5V38h3.4v2.4c0.6-1.6,2.5-2.7,4.6-2.7c3.3,0,5.2,2.5,5.2,5.9v8.3h-3.5v-7.7
			c0-2-0.9-3.4-3-3.4c-1.9,0-3.2,1.4-3.2,3.4C27.6,44.2,27.6,51.9,27.6,51.9z"/>
		<path fill="#FFFFFF" d="M44.6,51.9H41V38h3.4v2.4c0.6-1.6,2.5-2.7,4.6-2.7c3.3,0,5.2,2.5,5.2,5.9v8.3h-3.5v-7.7c0-2-0.9-3.4-3-3.4
			c-1.9,0-3.2,1.4-3.2,3.4L44.6,51.9L44.6,51.9z"/>
		<path fill="#FFFFFF" d="M60.6,46.2c0.2,2.1,1.6,3.5,4,3.5c1.7,0,3-0.8,3.7-1.8h3.3c-0.9,2.5-3.6,4.4-6.9,4.4
			c-4.7,0-7.5-3.1-7.5-7.3s3-7.3,7.3-7.3c4.4,0,7.3,3,7.3,7.3v1.1L60.6,46.2L60.6,46.2z M60.5,43.9h7.9c-0.2-2.1-1.6-3.7-3.9-3.7
			C62.3,40.2,60.8,41.6,60.5,43.9z"/>
		<path fill="#FFFFFF" d="M85.7,40.5V38h3.5v13.7c0,3.6-3.3,6.3-7.6,6.3c-3.6,0-6.4-1.6-7.5-4.8h3.5c0.7,1.3,2,2.1,4,2.1
			c2.4,0,4.1-1.3,4.1-3.6V49c-0.8,1.4-2.6,2.6-4.9,2.6c-4.1,0-6.9-3.1-6.9-6.9c0-3.9,2.8-7,6.9-7C83.2,37.7,85,38.9,85.7,40.5z
			 M85.7,44.7c0-2.5-1.9-4.1-4.2-4.1c-2.5,0-4.1,1.7-4.1,4.1c0,2.3,1.6,4,4.1,4C83.8,48.7,85.7,47.1,85.7,44.7z"/>
		<path fill="#FFFFFF" d="M107.6,38v13.9h-3.4v-2.4c-0.8,1.4-2.6,2.7-5.1,2.7c-4.1,0-7-3.3-7-7.3s2.9-7.3,7-7.3c2.4,0,4.3,1.3,5,2.7
			V38H107.6z M99.8,49.4c2.3,0,4.3-1.7,4.3-4.4s-2-4.4-4.3-4.4c-2.5,0-4.2,2-4.2,4.4C95.7,47.4,97.3,49.4,99.8,49.4z"/>
		<path fill="#FFFFFF" d="M115,51.9h-3.5V38h3.4v2.4c0.6-1.6,2.5-2.7,4.6-2.7c3.3,0,5.2,2.5,5.2,5.9v8.3h-3.5v-7.7
			c0-2-0.9-3.4-3-3.4c-1.9,0-3.2,1.4-3.2,3.4V51.9z"/>
		<path fill="#FFFFFF" d="M130.4,47.8c0.2,1.3,1,2,2.6,2c1.3,0,2.3-0.7,2.3-1.8c0-0.9-0.5-1.4-1.5-1.6l-2.1-0.6
			c-2.4-0.6-3.7-1.8-3.7-4c0-2.5,2.2-4.1,4.9-4.1c3,0,4.7,1.7,4.9,4.2h-3c-0.1-0.9-0.6-1.7-1.9-1.7c-1.1,0-1.8,0.6-1.8,1.5
			s0.5,1.2,1.5,1.5l2.5,0.7c2.2,0.6,3.3,1.9,3.3,3.9c0,2.8-2.6,4.5-5.5,4.5s-5.2-1.3-5.6-4.5C127.3,47.8,130.4,47.8,130.4,47.8z"/>
	</g>
	<g>
		<path fill="#002B2A" d="M20,79.2h-3.8L15,75.9H6.1l-1.3,3.3H1.1l8.2-19.1H12L20,79.2z M10.5,64.3L7.2,73h6.7L10.5,64.3z"/>
		<path fill="#002B2A" d="M35.9,70.1h-3.3c-0.6-1.3-1.7-2.3-3.8-2.3c-2.6,0-4,2-4,4.3s1.4,4.3,4,4.3c2,0,3.2-1,3.8-2.3h3.3
			c-0.7,2.8-3.4,5.2-7.1,5.2c-4.5,0-7.5-3.1-7.5-7.1s2.9-7.1,7.5-7.1C32.6,64.9,35.2,67.3,35.9,70.1z"/>
		<path fill="#002B2A" d="M53.1,65.4v13.7h-3.3v-2.6c-0.8,1.4-2.6,2.7-5,2.7c-4,0-6.9-3.2-6.9-7.1s2.8-7.1,6.9-7.1
			c2.4,0,4.2,1.2,4.9,2.7v-2.2L53.1,65.4L53.1,65.4z M45.5,76.3c2.3,0,4.2-1.7,4.2-4.3s-1.9-4.3-4.2-4.3c-2.5,0-4.1,1.9-4.1,4.3
			S43,76.3,45.5,76.3z"/>
		<path fill="#002B2A" d="M67.7,58.9h3.4v20.2h-3.3v-2.7c-0.8,1.4-2.6,2.7-5,2.7c-4,0-6.9-3.2-6.9-7.1s2.8-7.1,6.9-7.1
			c2.4,0,4.1,1.2,4.8,2.7L67.7,58.9L67.7,58.9z M63.5,76.3c2.3,0,4.2-1.7,4.2-4.3c0-2.6-1.9-4.3-4.2-4.3c-2.5,0-4.1,1.9-4.1,4.3
			C59.4,74.4,61.1,76.3,63.5,76.3z"/>
		<path fill="#002B2A" d="M77.4,73.2c0.2,2,1.5,3.4,4,3.4c1.7,0,2.9-0.7,3.6-1.8h3.2c-0.9,2.4-3.5,4.3-6.8,4.3
			c-4.6,0-7.3-3.1-7.3-7.1c0-4.1,3-7.1,7.2-7.1c4.3,0,7.1,3,7.1,7.2v1.1H77.4z M77.4,70.9h7.7c-0.2-2.1-1.6-3.6-3.8-3.6
			C79.1,67.4,77.7,68.7,77.4,70.9z"/>
		<path fill="#002B2A" d="M94.7,79.2h-3.4V65.4h3.3v2.5c0.6-1.6,2.3-2.6,4.4-2.6s3.6,1,4.3,2.6c1-1.7,2.7-2.6,4.9-2.6
			c3.3,0,5,2.4,5,5.8v8.2h-3.4v-7.6c0-1.9-0.7-3.4-2.8-3.4c-1.9,0-3.1,1.3-3.1,3.2v7.7h-3.4v-7.6c0-1.9-0.7-3.4-2.8-3.4
			c-1.9,0-3.1,1.4-3.1,3.3L94.7,79.2L94.7,79.2z"/>
		<path fill="#002B2A" d="M118.7,59.3c1.2,0,2,0.9,2,2s-0.9,2-2,2s-2-0.9-2-2S117.6,59.3,118.7,59.3z M117,79.2V65.4h3.4v13.7
			L117,79.2L117,79.2z"/>
		<path fill="#002B2A" d="M138.6,65.4v13.7h-3.3v-2.7c-0.8,1.4-2.6,2.7-5,2.7c-4,0-6.9-3.2-6.9-7.1s2.8-7.1,6.9-7.1
			c2.4,0,4.2,1.2,4.9,2.7v-2.2H138.6z M131,76.3c2.3,0,4.2-1.7,4.2-4.3c0-2.6-1.9-4.3-4.2-4.3c-2.5,0-4.1,1.9-4.1,4.3
			S128.5,76.3,131,76.3z"/>
	</g>
	<path fill="#002B2A" d="M18.1,0c-2.2,0-4.1,3.8-4.5,8.8c-0.7-2.7-2.2-4.5-3.9-4.5c-2.2,0-4,3.2-4.3,7.4C4.9,10.4,4,9.5,3.1,9.5
		C1.4,9.5,0,12.3,0,15.7s1.4,6.1,3.1,6.1c1.4,0,2.5-1.8,2.9-4.3c0.8,2.5,2.2,4.1,3.7,4.1c2,0,3.7-2.6,4.2-6.2
		c0.7,3.7,2.3,6.2,4.1,6.2c2.5,0,4.6-4.8,4.6-10.8S20.7,0,18.1,0z"/>
</g>
</svg>
