<?xml version="1.0" encoding="UTF-8"?>
<svg id="Layer_1" data-name="Layer 1" xmlns="http://www.w3.org/2000/svg" viewBox="0 0 1881.92 799.74">
  <defs>
    <style>
      .cls-1 {
        fill: #fff;
      }

      .cls-2 {
        fill: #002b2a;
      }
    </style>
  </defs>
  <g>
    <path class="cls-1" d="M423.3,394.04v-178.56h110.96v27.86h-79.19v47.02h76.99v27.62h-76.99v76.06h-31.77Z"/>
    <path class="cls-1" d="M575.32,215.37c10.51,0,18.33,8.07,18.33,18.09s-7.82,18.09-18.33,18.09-18.33-7.82-18.33-18.09,8.07-18.09,18.33-18.09ZM559.92,394.04v-121.96h30.8v121.96h-30.8Z"/>
    <path class="cls-1" d="M656.22,394.04h-30.8v-121.96h29.82v20.78c5.62-14.18,21.51-23.71,40.57-23.71,29.33,0,45.71,21.51,45.71,51.82v73.08h-30.8v-67.95c0-17.35-7.82-30.06-26.15-30.06-16.86,0-28.35,12.22-28.35,29.82v68.19Z"/>
    <path class="cls-1" d="M804.81,394.04h-30.8v-121.96h29.82v20.78c5.62-14.18,21.51-23.71,40.57-23.71,29.33,0,45.71,21.51,45.71,51.82v73.08h-30.8v-67.95c0-17.35-7.82-30.06-26.15-30.06-16.86,0-28.35,12.22-28.35,29.82v68.19Z"/>
    <path class="cls-1" d="M945.34,343.45c1.96,18.33,13.69,30.8,35.44,30.8,14.91,0,26.4-6.6,32.26-15.89h28.6c-8.31,21.75-31.77,38.62-60.86,38.62-41.55,0-65.75-27.62-65.75-64.04s26.64-63.79,64.28-63.79,64.04,26.64,64.04,64.28v10.02h-98.01ZM945.1,323.16h68.92c-1.96-18.82-14.42-32.02-34.22-32.02s-32.26,12.22-34.71,32.02Z"/>
    <path class="cls-1" d="M1165.8,293.59v-21.51h30.31v120.25c0,31.53-28.6,55.48-66.48,55.48-31.53,0-56.21-13.93-65.5-41.79h30.55c5.87,11.73,17.35,18.09,34.71,18.09,21.02,0,35.93-11.49,35.93-31.77v-23.71c-7.09,12.22-22.73,22.49-42.77,22.49-36.17,0-60.37-27.13-60.37-60.86s24.2-61.1,60.37-61.1c21.02,0,37.4,10.75,43.26,24.44ZM1165.31,330.25c0-21.51-16.62-35.68-36.91-35.68-21.75,0-35.68,15.15-35.68,35.68s13.93,35.44,35.68,35.44c20.29,0,36.91-14.18,36.91-35.44Z"/>
    <path class="cls-1" d="M1357.9,272.08v121.96h-29.57v-21.02c-7.09,12.47-23.22,23.95-44.48,23.95-36.17,0-61.59-28.84-61.59-63.79s25.42-64.04,61.59-64.04c21.26,0,37.88,11,43.99,23.95v-21.02h30.06ZM1289.71,371.55c20.29,0,37.4-14.91,37.4-38.37s-17.11-38.62-37.4-38.62c-22,0-36.66,17.35-36.66,38.62s14.66,38.37,36.66,38.37Z"/>
    <path class="cls-1" d="M1422.42,394.04h-30.8v-121.96h29.82v20.78c5.62-14.18,21.51-23.71,40.57-23.71,29.33,0,45.71,21.51,45.71,51.82v73.08h-30.8v-67.95c0-17.35-7.82-30.06-26.15-30.06-16.86,0-28.35,12.22-28.35,29.82v68.19Z"/>
    <path class="cls-1" d="M1557.82,357.62c1.71,11.24,9.04,17.84,22.49,17.84,11.73,0,20.04-5.87,20.04-15.64,0-7.82-4.16-11.98-13.2-14.42l-18.09-4.89c-21.02-5.38-32.75-15.64-32.75-35.19,0-22.24,19.06-36.17,43.26-36.17,26.15,0,40.82,15.15,43.26,36.42h-26.15c-.49-7.58-5.62-14.91-16.38-14.91-9.53,0-15.89,5.13-15.89,13.2,0,7.58,4.4,10.51,13.2,12.95l21.75,6.11c19.55,5.38,29.08,16.62,29.08,34.22,0,24.2-22.97,39.84-47.9,39.84s-45.71-11.73-48.88-39.35h26.15Z"/>
  </g>
  <g>
    <path class="cls-2" d="M589.31,607.37h-33.24l-11.24-29.17h-77.47l-11.24,29.17h-33.24l71.5-167.38h23.43l71.5,167.38ZM506.1,476.57l-29.17,76.04h58.34l-29.17-76.04Z"/>
    <path class="cls-2" d="M728.71,527.75h-29.17c-5.02-11-15.3-20.32-33-20.32-22.72,0-35.39,17.46-35.39,37.54s12.67,37.3,35.39,37.3c17.69,0,27.98-8.85,33-20.32h29.17c-6.22,24.87-29.41,45.43-61.93,45.43-39.69,0-65.52-27.26-65.52-62.41s25.82-62.65,65.52-62.65c32.52,0,55.71,20.56,61.93,45.43Z"/>
    <path class="cls-2" d="M879.12,486.75v120.41h-28.93v-23.22c-6.94,12.19-22.72,23.43-43.52,23.43-35.39,0-60.26-28.22-60.26-62.41s24.87-62.65,60.26-62.65c20.8,0,37.06,10.76,43.04,23.43v-19h29.41ZM812.4,582.51c19.85,0,36.58-14.59,36.58-37.54s-16.74-37.78-36.58-37.78c-21.52,0-35.87,16.98-35.87,37.78s14.35,37.54,35.87,37.54Z"/>
    <path class="cls-2" d="M1007.28,429.67h30.13v177.49h-28.93v-23.5c-6.93,12.19-22.72,23.43-43.52,23.43-35.39,0-60.26-28.22-60.26-62.41s24.87-62.65,60.26-62.65c20.8,0,36.34,10.76,42.32,23.43v-75.8ZM970.7,582.23c19.85,0,36.58-14.59,36.58-37.54s-16.74-37.78-36.58-37.78c-21.52,0-35.87,16.98-35.87,37.78s14.35,37.54,35.87,37.54Z"/>
    <path class="cls-2" d="M1092.64,555.04c1.91,17.93,13.39,30.13,34.67,30.13,14.59,0,25.82-6.46,31.56-15.54h27.98c-8.13,21.28-31.08,37.78-59.54,37.78-40.65,0-64.32-27.02-64.32-62.65s26.06-62.41,62.89-62.41,62.65,26.06,62.65,62.89v9.8h-95.88ZM1092.4,535.2h67.43c-1.91-18.41-14.11-31.32-33.48-31.32s-31.56,11.96-33.95,31.32Z"/>
    <path class="cls-2" d="M1244.48,607.37h-30.13v-120.61h29.17v21.62c5.5-13.87,20.09-23.19,38.74-23.19s31.32,8.85,38.02,23.19c9.09-14.82,23.91-23.19,43.28-23.19,28.69,0,43.52,21.04,43.52,50.69v71.49h-30.13v-66.47c0-16.98-6.46-29.41-24.39-29.41-16.26,0-26.78,11.48-26.78,27.98v67.91h-30.13v-66.47c0-16.98-6.46-29.41-24.39-29.41-16.5,0-26.78,11.96-26.78,29.17v66.71Z"/>
    <path class="cls-2" d="M1454.9,432.58c10.28,0,17.93,7.89,17.93,17.69s-7.65,17.69-17.93,17.69-17.93-7.65-17.93-17.69,7.89-17.69,17.93-17.69ZM1439.83,607.37v-120.61h30.13v120.61h-30.13Z"/>
    <path class="cls-2" d="M1629.21,486.75v120.41h-28.93v-23.32c-6.93,12.19-22.72,23.43-43.52,23.43-35.39,0-60.26-28.22-60.26-62.41s24.87-62.65,60.26-62.65c20.8,0,37.06,10.76,43.04,23.43v-18.9h29.41ZM1562.5,582.41c19.85,0,36.58-14.59,36.58-37.54s-16.74-37.78-36.58-37.78c-21.52,0-35.87,16.98-35.87,37.78s14.35,37.54,35.87,37.54Z"/>
  </g>
  <path class="cls-2" d="M330.1,214.23c-19.67,0-36.03,33.41-39.49,77.52-6.52-23.63-19.2-39.67-33.78-39.67-19.27,0-35.22,28.01-38.02,64.55-4.98-11.41-12.34-18.65-20.56-18.65-14.99,0-27.15,24.02-27.15,53.66s12.16,53.66,27.15,53.66c12.11,0,22.36-15.67,25.86-37.3,6.78,21.65,18.89,36.08,32.72,36.08,17.48,0,32.23-23.06,36.9-54.62,6.41,32.27,20.29,54.62,36.37,54.62,22.18,0,40.17-42.5,40.17-94.92s-17.98-94.92-40.17-94.92Z"/>
</svg>