<?xml version="1.0" encoding="UTF-8"?>
<svg id="Layer_5" data-name="Layer 5" xmlns="http://www.w3.org/2000/svg" viewBox="0 0 263.88 80">
  <defs>
    <style>
      .cls-1 {
        fill: #ff92de;
      }

      .cls-2 {
        fill: #fff;
      }
    </style>
  </defs>
  <rect class="cls-2" x="0" y="2.88" width="263.88" height="74.24" rx="37.12" ry="37.12"/>
  <g>
    <path class="cls-1" d="M122.62,28.02v28.47h-6.9v-4.91c-1.65,2.91-5.42,5.59-10.38,5.59-8.44,0-14.38-6.73-14.38-14.89s5.93-14.95,14.38-14.95c4.96,0,8.84,2.57,10.27,5.59v-4.91h7.02ZM106.7,51.23c4.74,0,8.73-3.48,8.73-8.96s-3.99-9.01-8.73-9.01c-5.13,0-8.56,4.05-8.56,9.01s3.42,8.96,8.56,8.96Z"/>
    <path class="cls-1" d="M145.68,34.92h-1.54c-5.76,0-8.44,3.37-8.44,8.9v12.66h-7.19v-28.47h6.96v6.16c1.37-4.51,5.19-6.39,10.21-6.39v7.13Z"/>
    <path class="cls-1" d="M154.62,19.52h7.19v8.5h7.36v5.93h-7.36v12.95c0,2.97,1.14,4.28,3.94,4.28,1.2,0,2.17-.23,3.14-.51v5.76c-.91.34-3.19.74-5.02.74-6.73,0-9.24-4.05-9.24-10.61v-12.61h-5.31v-5.93h5.31v-8.5Z"/>
    <path class="cls-1" d="M180.01,44.67c.46,4.28,3.19,7.19,8.27,7.19,3.48,0,6.16-1.54,7.53-3.71h6.67c-1.94,5.08-7.42,9.01-14.21,9.01-9.7,0-15.35-6.45-15.35-14.95s6.22-14.89,15-14.89,14.95,6.22,14.95,15v2.34h-22.88ZM179.95,39.94h16.09c-.46-4.39-3.37-7.47-7.99-7.47s-7.53,2.85-8.1,7.47Z"/>
    <path class="cls-1" d="M213.15,47.98c.4,2.62,2.11,4.16,5.25,4.16,2.74,0,4.68-1.37,4.68-3.65,0-1.83-.97-2.8-3.08-3.37l-4.22-1.14c-4.91-1.26-7.64-3.65-7.64-8.22,0-5.19,4.45-8.44,10.1-8.44,6.1,0,9.53,3.54,10.1,8.5h-6.1c-.11-1.77-1.31-3.48-3.82-3.48-2.23,0-3.71,1.2-3.71,3.08,0,1.77,1.03,2.45,3.08,3.02l5.08,1.43c4.56,1.26,6.79,3.88,6.79,7.99,0,5.65-5.36,9.3-11.18,9.3s-10.67-2.74-11.41-9.18h6.1Z"/>
  </g>
  <circle class="cls-1" cx="38.81" cy="40.34" r="30.51"/>
  <g>
    <path class="cls-2" d="M56.41,40.99c-1.68,1.75-4.25,2.87-7.04,3.07-2.57.19-4.95-.53-7.05-2.14-.87-.66-1.61-1.3-2.23-1.85l-2.62-2.76-16.99,16.17,3.49,3.66,13.39-12.75c.56.49,1.19,1,1.89,1.54,2.79,2.14,5.91,3.21,9.29,3.21.4,0,.8-.01,1.2-.04,2.13-.16,4.15-.68,6-1.55,1.65-.78,3.14-1.84,4.32-3.06l-3.65-3.5Z"/>
    <ellipse class="cls-2" cx="37.39" cy="29.77" rx="3.8" ry="3.87"/>
  </g>
</svg>