<?xml version="1.0" encoding="UTF-8"?>
<svg id="Layer_1" xmlns="http://www.w3.org/2000/svg" version="1.1" viewBox="0 0 210.5 94.2">
  <!-- Generator: Adobe Illustrator 29.7.1, SVG Export Plug-In . SVG Version: 2.1.1 Build 8)  -->
  <defs>
    <style>
      .st0 {
        fill: #fff;
      }
    </style>
  </defs>
  <path class="st0" d="M100.1,80.1l-13.3-12.6h-37.5c-12.6,0-22.8-10.2-22.8-22.8s10.2-22.8,22.8-22.8h107.3c12.6,0,22.8,10.2,22.8,22.8s-10.2,22.8-22.8,22.8h-43.7l-12.8,12.6ZM49.3,23.1c-11.9,0-21.6,9.7-21.6,21.6s9.7,21.6,21.6,21.6h38l12.8,12.1,12.3-12.1h44.2c11.9,0,21.6-9.7,21.6-21.6s-9.7-21.6-21.6-21.6H49.3Z"/>
  <g>
    <path class="st0" d="M54.4,55c-1-.9-1.6-2.2-1.6-3.9s.5-3,1.6-3.8c1.1-.9,2.5-1.3,4.3-1.3v-2h2.6v4c.1,0-.7,0-.7,0-1.6,0-2.9.2-3.7.7-.9.4-1.3,1.3-1.3,2.5s.3,1.6.8,2.1c.5.5,1.2.8,2.1.8s1.6-.2,2.1-.7c.5-.5.8-1.2.8-2h2.7c0,1-.2,1.9-.7,2.7-.5.8-1.1,1.4-2,1.8-.8.4-1.8.7-3,.7-1.7,0-3.1-.5-4.1-1.4ZM61.5,39c.4.4.5.8.5,1.3s-.2,1-.5,1.3c-.4.4-.8.5-1.3.5s-.9-.2-1.3-.5c-.4-.4-.5-.8-.5-1.3s.2-1,.5-1.3c.4-.4.8-.5,1.3-.5s1,.2,1.3.5Z"/>
    <path class="st0" d="M82.2,35.1l-6.6,17.5h-3.3l-6.6-17.5h3.1l5.2,14.6,5.2-14.6h3Z"/>
    <path class="st0" d="M97.2,46.7h-10.6c0,1.1.5,2,1.2,2.7.7.7,1.6,1,2.7,1,1.5,0,2.6-.6,3.3-1.9h3.1c-.4,1.3-1.2,2.3-2.3,3.1-1.1.8-2.5,1.2-4.1,1.2s-2.5-.3-3.6-.9c-1.1-.6-1.9-1.4-2.5-2.5-.6-1.1-.9-2.3-.9-3.8s.3-2.7.9-3.8c.6-1.1,1.4-1.9,2.4-2.5,1.1-.6,2.3-.9,3.6-.9s2.5.3,3.5.9c1,.6,1.8,1.4,2.4,2.4.6,1,.9,2.2.9,3.6s0,1-.1,1.4ZM94.3,44.4c0-1.1-.4-1.9-1.1-2.5s-1.7-1-2.7-1-1.8.3-2.5.9c-.7.6-1.1,1.5-1.3,2.6h7.7Z"/>
    <path class="st0" d="M110.1,39.1c.9.5,1.5,1.1,2,2,.5.9.7,2,.7,3.2v8.2h-2.9v-7.8c0-1.2-.3-2.2-.9-2.9-.6-.7-1.5-1-2.5-1s-1.9.3-2.6,1c-.6.7-.9,1.6-.9,2.9v7.8h-2.9v-13.9h2.9v1.6c.5-.6,1.1-1,1.8-1.3.7-.3,1.5-.5,2.3-.5s2.1.2,2.9.7Z"/>
    <path class="st0" d="M120.5,35l-5.6,2.8v-2.1l5.6-3.1v2.4ZM119.4,38.7v13.9h-2.9v-13.9h2.9Z"/>
    <path class="st0" d="M125.3,52.2c-.9-.4-1.6-.9-2.1-1.6s-.8-1.4-.8-2.3h3c0,.6.3,1.1.8,1.5.5.4,1.2.6,1.9.6s1.4-.2,1.9-.5c.4-.3.7-.7.7-1.2s-.2-.9-.7-1.2c-.5-.3-1.3-.5-2.4-.8-1-.3-1.9-.6-2.5-.8-.7-.3-1.2-.7-1.7-1.2-.5-.6-.7-1.3-.7-2.2s.2-1.4.7-2c.4-.6,1.1-1.1,1.9-1.5.8-.4,1.8-.5,2.8-.5,1.6,0,2.9.4,3.8,1.2,1,.8,1.5,1.9,1.6,3.3h-2.9c0-.6-.3-1.1-.8-1.5-.5-.4-1.1-.6-1.8-.6s-1.3.1-1.7.4c-.4.3-.6.7-.6,1.1s.1.7.4.9c.3.3.6.5,1,.6s1,.3,1.7.5c1,.3,1.8.5,2.5.8.6.3,1.2.7,1.7,1.2.5.5.7,1.3.7,2.1,0,.8-.2,1.5-.7,2.1-.4.6-1.1,1.1-1.9,1.5s-1.7.5-2.8.5-2.1-.2-2.9-.6Z"/>
    <path class="st0" d="M145.5,36.2c1,.9,1.6,2.2,1.6,3.9s-.5,3-1.6,3.8c-1.1.9-2.5,1.3-4.3,1.3v2h-2.6v-4c-.1,0,.7,0,.7,0,1.6,0,2.9-.2,3.7-.7.9-.4,1.3-1.3,1.3-2.5s-.3-1.6-.8-2.1c-.5-.5-1.2-.8-2.1-.8s-1.6.2-2.1.7c-.5.5-.8,1.2-.8,2h-2.7c0-1,.2-1.9.7-2.7.5-.8,1.1-1.4,2-1.8.8-.4,1.8-.7,3-.7,1.7,0,3.1.5,4.1,1.4ZM138.4,52.2c-.4-.4-.5-.8-.5-1.3s.2-1,.5-1.3c.4-.4.8-.5,1.3-.5s.9.2,1.3.5c.4.4.5.8.5,1.3s-.2,1-.5,1.3c-.4.4-.8.5-1.3.5s-1-.2-1.3-.5Z"/>
  </g>
</svg>