<?xml version="1.0" encoding="UTF-8"?>
<svg id="Layer_1" xmlns="http://www.w3.org/2000/svg" version="1.1" viewBox="0 0 422.6 195">
  <!-- Generator: Adobe Illustrator 29.6.1, SVG Export Plug-In . SVG Version: 2.1.1 Build 9)  -->
  <g>
    <circle cx="558" cy="164.3" r="5.5" fill="#00b8ff"/>
    <circle cx="558" cy="182.5" r="5.5" fill="#00cdff"/>
    <circle cx="558" cy="200.6" r="5.5" fill="#00b8ff"/>
    <circle cx="549.1" cy="191.5" r="5.5" fill="#00a6ff"/>
    <circle cx="540" cy="182.5" r="5.5" fill="#0081fd"/>
    <circle cx="549.1" cy="173.4" r="5.5" fill="#00a6ff"/>
  </g>
  <path d="M369.9,77.9c-4-27.9-29.5-44.8-55.7-48.9-4.8-.8-9.7,1.2-11.1,6.3-1.2,4.3,1.5,10.3,6.3,11.1,18.7,3,39,12.8,42.6,33.4,3.2,18.1-13.7,35.4-27.4,44.6-16.1,10.8-35,16.2-53.6,21-22.8,5.8-46.1,9.1-69.5,9.8-24.1.8-48.1-1.2-71.9-5.3-21.6-3.7-43.2-10.1-60.7-23.8-7.4-5.8-13.4-15.6-13.7-25.2-.3-9.5,6.2-21.4,11.9-28.7,5.9-7.6,15-14,23.7-18,8.6-4,17.5-8.1,26.6-11,21.7-6.9,44.6-9.3,67.3-9.5,27.6-.2,55.3-.7,82.9-1.3,11.6-.2,11.6-18.2,0-18-27,.5-53.9,1.1-80.9,1.2-23.4.1-47,2.3-69.5,8.7-11.3,3.2-21.9,8.3-32.7,12.9-10.4,4.5-20.6,11.7-28.4,20.1-8.4,9.1-14.9,21.7-17.6,33.8-2.7,12,.5,24.8,6.7,35.3,6.3,10.7,17.6,18,28.2,23.8,11,6,22.8,10.6,35,13.6,25.9,6.4,53.3,9.3,80,9.5,26.9.2,54-2.8,80.2-8.9,21.5-5,43.8-11.2,62.7-23,21-13.2,42.4-37,38.6-63.6Z" fill="#4bc3ff"/>
</svg>