<?xml version="1.0" encoding="UTF-8"?>
<svg id="Layer_2" data-name="Layer 2" xmlns="http://www.w3.org/2000/svg" viewBox="0 0 226.44 80">
  <defs>
    <style>
      .cls-1 {
        fill: #fff;
      }

      .cls-2 {
        fill: #008584;
      }
    </style>
  </defs>
  <rect class="cls-1" x="0" y="2.88" width="226.44" height="74.24" rx="37.12" ry="37.12"/>
  <circle class="cls-2" cx="38.81" cy="40.34" r="30.51"/>
  <g>
    <path class="cls-1" d="M56.41,40.99c-1.68,1.75-4.25,2.87-7.04,3.07-2.57.19-4.95-.53-7.05-2.14-.87-.66-1.61-1.3-2.23-1.85l-2.62-2.76-16.99,16.17,3.49,3.66,13.39-12.75c.56.49,1.19,1,1.89,1.54,2.79,2.14,5.91,3.21,9.29,3.21.4,0,.8-.01,1.2-.04,2.13-.16,4.15-.68,6-1.55,1.65-.78,3.14-1.84,4.32-3.06l-3.65-3.5Z"/>
    <ellipse class="cls-1" cx="37.39" cy="29.77" rx="3.8" ry="3.87"/>
  </g>
  <g>
    <path class="cls-2" d="M99.45,42.39c.45,4.21,3.14,7.07,8.14,7.07,3.43,0,6.06-1.52,7.41-3.65h6.57c-1.91,5-7.3,8.87-13.98,8.87-9.55,0-15.1-6.34-15.1-14.71s6.12-14.66,14.77-14.66,14.71,6.12,14.71,14.77v2.3h-22.52ZM99.39,37.73h15.83c-.45-4.32-3.31-7.36-7.86-7.36s-7.41,2.81-7.97,7.36Z"/>
    <path class="cls-2" d="M156.22,35.99h-6.85c-1.18-2.58-3.59-4.77-7.75-4.77-5.33,0-8.31,4.1-8.31,8.82s2.98,8.76,8.31,8.76c4.16,0,6.57-2.08,7.75-4.77h6.85c-1.46,5.84-6.91,10.67-14.54,10.67-9.32,0-15.39-6.4-15.39-14.66s6.06-14.71,15.39-14.71c7.64,0,13.08,4.83,14.54,10.67Z"/>
    <path class="cls-2" d="M160.37,40.03c0-7.64,5.73-14.71,15.39-14.71s15.39,7.07,15.39,14.71-5.73,14.66-15.39,14.66-15.39-7.07-15.39-14.66ZM167.28,40.03c0,4.55,3.03,8.76,8.48,8.76s8.48-4.21,8.48-8.76-3.03-8.82-8.48-8.82-8.48,4.27-8.48,8.82Z"/>
  </g>
</svg>