<?xml version="1.0" encoding="UTF-8"?>
<svg id="Layer_4" data-name="Layer 4" xmlns="http://www.w3.org/2000/svg" viewBox="0 0 408.41 80">
  <defs>
    <style>
      .cls-1 {
        fill: #fff;
      }

      .cls-2 {
        fill: #fd8100;
      }
    </style>
  </defs>
  <g>
    <rect class="cls-1" x="0" y="2.88" width="408.41" height="74.24" rx="37.12" ry="37.12"/>
    <circle class="cls-2" cx="38.81" cy="40.34" r="30.51"/>
    <g>
      <path class="cls-1" d="M56.41,40.99c-1.68,1.75-4.25,2.87-7.04,3.07-2.57.19-4.95-.53-7.05-2.14-.87-.66-1.61-1.3-2.23-1.85l-2.62-2.76-16.99,16.17,3.49,3.66,13.39-12.75c.56.49,1.19,1,1.89,1.54,2.79,2.14,5.91,3.21,9.29,3.21.4,0,.8-.01,1.2-.04,2.13-.16,4.15-.68,6-1.55,1.65-.78,3.14-1.84,4.32-3.06l-3.65-3.5Z"/>
      <ellipse class="cls-1" cx="37.39" cy="29.77" rx="3.8" ry="3.87"/>
    </g>
  </g>
  <g>
    <path class="cls-2" d="M97.22,45.71c.44,4.14,3.09,6.95,8,6.95,3.36,0,5.96-1.49,7.28-3.58h6.45c-1.87,4.91-7.17,8.71-13.73,8.71-9.37,0-14.83-6.23-14.83-14.45s6.01-14.39,14.5-14.39,14.45,6.01,14.45,14.5v2.26h-22.11ZM97.16,41.13h15.55c-.44-4.25-3.25-7.22-7.72-7.22s-7.28,2.76-7.83,7.22Z"/>
    <path class="cls-2" d="M147.23,16.87h6.95v40.94h-6.67v-5.43c-1.6,2.81-5.24,5.4-10.04,5.4-8.16,0-13.9-6.51-13.9-14.39s5.73-14.45,13.9-14.45c4.8,0,8.38,2.48,9.76,5.4v-17.48ZM138.8,52.05c4.58,0,8.44-3.36,8.44-8.66s-3.86-8.71-8.44-8.71c-4.96,0-8.27,3.91-8.27,8.71s3.31,8.66,8.27,8.66Z"/>
    <path class="cls-2" d="M180.54,29.61h6.95v28.2h-6.67v-5.32c-1.38,3.14-4.8,5.29-9.1,5.29-6.62,0-10.2-4.85-10.2-11.63v-16.54h6.95v15.44c0,3.97,1.54,6.78,5.79,6.78,3.97,0,6.29-2.76,6.29-6.73v-15.49Z"/>
    <path class="cls-2" d="M222.78,39.42h-6.73c-1.16-2.54-3.53-4.69-7.61-4.69-5.24,0-8.16,4.03-8.16,8.66s2.92,8.6,8.16,8.6c4.08,0,6.45-2.04,7.61-4.69h6.73c-1.43,5.73-6.78,10.48-14.28,10.48-9.15,0-15.11-6.29-15.11-14.39s5.96-14.45,15.11-14.45c7.5,0,12.85,4.74,14.28,10.48Z"/>
    <path class="cls-2" d="M257.46,29.61v28.2h-6.67v-5.43c-1.6,2.81-5.24,5.4-10.04,5.4-8.16,0-13.9-6.51-13.9-14.39s5.73-14.45,13.9-14.45c4.8,0,8.55,2.48,9.93,5.4v-4.74h6.78ZM242.08,52.05c4.58,0,8.44-3.36,8.44-8.66s-3.86-8.71-8.44-8.71c-4.96,0-8.27,3.91-8.27,8.71s3.31,8.66,8.27,8.66Z"/>
    <path class="cls-2" d="M292.75,39.42h-6.73c-1.16-2.54-3.53-4.69-7.61-4.69-5.24,0-8.16,4.03-8.16,8.66s2.92,8.6,8.16,8.6c4.08,0,6.45-2.04,7.61-4.69h6.73c-1.43,5.73-6.78,10.48-14.28,10.48-9.15,0-15.11-6.29-15.11-14.39s5.96-14.45,15.11-14.45c7.5,0,12.85,4.74,14.28,10.48Z"/>
    <path class="cls-2" d="M302.24,16.81c2.37,0,4.14,1.82,4.14,4.08s-1.76,4.08-4.14,4.08-4.14-1.76-4.14-4.08,1.82-4.08,4.14-4.08ZM298.76,57.81v-28.2h6.95v28.2h-6.95Z"/>
    <path class="cls-2" d="M311.83,43.39c0-7.5,5.62-14.45,15.11-14.45s15.11,6.95,15.11,14.45-5.62,14.39-15.11,14.39-15.11-6.95-15.11-14.39ZM318.61,43.39c0,4.47,2.98,8.6,8.33,8.6s8.33-4.14,8.33-8.6-2.98-8.66-8.33-8.66-8.33,4.19-8.33,8.66ZM323.08,26.02l4.36-8.33h9.04l-6.67,8.33h-6.73Z"/>
    <path class="cls-2" d="M354.9,57.81h-6.95v-28.2h6.73v4.69c1.27-3.2,4.85-5.35,9.15-5.35,6.62,0,10.31,4.85,10.31,11.69v17.17h-6.95v-16.02c0-3.91-1.76-6.78-5.9-6.78-3.8,0-6.4,2.76-6.4,6.73v16.07Z"/>
  </g>
</svg>