<svg xml:space="preserve" overflow="visible" viewBox="17.799288256227758 20.405 275.8889679715303 153.594" y="0px" x="0px" xmlns:xlink="http://www.w3.org/1999/xlink" xmlns="http://www.w3.org/2000/svg" id="Layer_1" version="1.1" style="max-height: 500px" width="275.8889679715303" height="153.594">
<g>
	
		<ellipse ry="5.6" rx="5.6" cy="43.7" cx="25" fill="#003075" transform="matrix(3.999224e-03 -1 1 3.999224e-03 -18.8394 68.5411)"/>
	<path d="M46,36L28.6,22.9c-2.1-1.6-5-1.2-6.6,0.9c-1.6,2.1-1.2,5,0.9,6.6l14.3,10.9c1.7,1.3,1.7,3.8,0,5L22.5,57.2&#10;&#9;&#9;c-2.1,1.5-2.5,4.5-1,6.6c0.9,1.3,2.3,1.9,3.8,1.9c1,0,1.9-0.3,2.8-0.9l17.8-13.1c2.6-1.9,4.2-4.8,4.2-7.8C50.1,40.9,48.6,38,46,36z" fill="#003075"/>
</g>
<g>
	<path d="M19.4,121.2V80.6h25.2v6.3h-18v10.7h17.5v6.3H26.6v17.3H19.4z" fill="#FFFFFF"/>
	<path d="M53.9,80.6c2.4,0,4.2,1.8,4.2,4.1c0,2.3-1.8,4.1-4.2,4.1c-2.3,0-4.2-1.8-4.2-4.1&#10;&#9;&#9;C49.8,82.4,51.6,80.6,53.9,80.6z M50.4,121.2V93.5h7v27.7H50.4z" fill="#FFFFFF"/>
	<path d="M72.3,121.2h-7V93.5h6.8v4.7c1.3-3.2,4.9-5.4,9.2-5.4c6.7,0,10.4,4.9,10.4,11.8v16.6h-7v-15.4&#10;&#9;&#9;c0-3.9-1.8-6.8-5.9-6.8c-3.8,0-6.4,2.8-6.4,6.8V121.2z" fill="#FFFFFF"/>
	<path d="M106.1,121.2h-7V93.5h6.8v4.7c1.3-3.2,4.9-5.4,9.2-5.4c6.7,0,10.4,4.9,10.4,11.8v16.6h-7v-15.4&#10;&#9;&#9;c0-3.9-1.8-6.8-5.9-6.8c-3.8,0-6.4,2.8-6.4,6.8V121.2z" fill="#FFFFFF"/>
	<path d="M138,109.7c0.4,4.2,3.1,7,8.1,7c3.4,0,6-1.5,7.3-3.6h6.5c-1.9,4.9-7.2,8.8-13.8,8.8&#10;&#9;&#9;c-9.4,0-14.9-6.3-14.9-14.6c0-8.4,6.1-14.5,14.6-14.5c8.7,0,14.6,6.1,14.6,14.6v2.3H138z M138,105.1h15.7c-0.4-4.3-3.3-7.3-7.8-7.3&#10;&#9;&#9;C141.5,97.8,138.5,100.6,138,105.1z" fill="#FFFFFF"/>
	<path d="M188.1,98.3v-4.9h6.9v27.3c0,7.2-6.5,12.6-15.1,12.6c-7.2,0-12.8-3.2-14.9-9.5h6.9c1.3,2.7,3.9,4.1,7.9,4.1&#10;&#9;&#9;c4.8,0,8.2-2.6,8.2-7.2v-5.4c-1.6,2.8-5.2,5.1-9.7,5.1c-8.2,0-13.7-6.2-13.7-13.8c0-7.7,5.5-13.9,13.7-13.9&#10;&#9;&#9;C183.1,92.8,186.8,95.2,188.1,98.3z M188,106.7c0-4.9-3.8-8.1-8.4-8.1c-4.9,0-8.1,3.4-8.1,8.1c0,4.6,3.2,8.1,8.1,8.1&#10;&#9;&#9;C184.2,114.7,188,111.5,188,106.7z" fill="#FFFFFF"/>
	<path d="M231.8,93.5v27.7H225v-4.8c-1.6,2.8-5.3,5.4-10.1,5.4c-8.2,0-14-6.6-14-14.5c0-8,5.8-14.6,14-14.6&#10;&#9;&#9;c4.8,0,8.6,2.5,10,5.4v-4.8H231.8z M216.3,116.1c4.6,0,8.5-3.4,8.5-8.7c0-5.3-3.9-8.8-8.5-8.8c-5,0-8.3,3.9-8.3,8.8&#10;&#9;&#9;C207.9,112.2,211.3,116.1,216.3,116.1z" fill="#FFFFFF"/>
	<path d="M246.4,121.2h-7V93.5h6.8v4.7c1.3-3.2,4.9-5.4,9.2-5.4c6.7,0,10.4,4.9,10.4,11.8v16.6h-7v-15.4&#10;&#9;&#9;c0-3.9-1.8-6.8-5.9-6.8c-3.8,0-6.4,2.8-6.4,6.8V121.2z" fill="#FFFFFF"/>
	<path d="M277.2,112.9c0.4,2.6,2.1,4.1,5.1,4.1c2.7,0,4.6-1.3,4.6-3.6c0-1.8-0.9-2.7-3-3.3l-4.1-1.1&#10;&#9;&#9;c-4.8-1.2-7.4-3.6-7.4-8c0-5.1,4.3-8.2,9.8-8.2c5.9,0,9.3,3.4,9.8,8.3H286c-0.1-1.7-1.3-3.4-3.7-3.4c-2.2,0-3.6,1.2-3.6,3&#10;&#9;&#9;c0,1.7,1,2.4,3,2.9l4.9,1.4c4.4,1.2,6.6,3.8,6.6,7.8c0,5.5-5.2,9.1-10.9,9.1c-5.8,0-10.4-2.7-11.1-8.9H277.2z" fill="#FFFFFF"/>
</g>
<g>
	<path d="M84.6,132.3c-10.9,0-19.8,8.9-19.8,19.8s8.9,19.8,19.8,19.8c10.9,0,19.8-8.9,19.8-19.8&#10;&#9;&#9;S95.6,132.3,84.6,132.3z M84.6,163c-6.1,0-11-4.9-11-11c0-6.1,4.9-11,11-11c6.1,0,11,4.9,11,11C95.6,158.1,90.7,163,84.6,163z" fill="#003075"/>
	<path d="M58.5,147.7H37.8v8.8h11.4c-1.7,3.8-5.6,6.5-10,6.5c-6.1,0-11-4.9-11-11c0-2.9,1.2-5.6,3-7.6&#10;&#9;&#9;c2-2.1,4.8-3.4,7.9-3.4c1.6,0,3,0.3,4.4,0.9c1.3,0.6,2.5,1.4,3.5,2.5l8.4-3.6c-3.6-5.2-9.5-8.6-16.3-8.6&#10;&#9;&#9;c-10.9,0-19.8,8.9-19.8,19.8c0,10.9,8.9,19.8,19.8,19.8C50.1,171.8,59,163,59,152c0-0.8-0.1-1.6-0.1-2.4&#10;&#9;&#9;C58.7,149,58.6,148.3,58.5,147.7z" fill="#003075"/>
</g>
</svg>