<svg viewBox="9.978498727735369 8.2948 53.90254452926208 29.9172" version="1.1" xmlns="http://www.w3.org/2000/svg" id="Layer_1" style="max-height: 500px" width="53.90254452926208" height="29.9172">
  
  <defs>
    <style>
      .st0 {
        fill: #003075;
      }

      .st1 {
        fill: #fff;
      }
    </style>
  </defs>
  <g>
    <circle r="1.1" cy="13.1" cx="11.8" class="st0"/>
    <path d="M11.4,10.4c-.4-.3-.5-.9-.2-1.3.3-.4.9-.5,1.3-.2l3.4,2.6c.5.4.8,1,.8,1.6,0,.6-.3,1.2-.8,1.5l-3.5,2.6c-.2.1-.4.2-.6.2-.3,0-.6-.1-.8-.4-.3-.4-.2-1,.2-1.3l2.9-2.2c.3-.2.3-.7,0-1l-2.8-2.2ZM14.9,13.1h0,0Z" class="st0"/>
  </g>
  <g>
    <path d="M11,28.2v-7.7h4.8v1.2h-3.4v2h3.3v1.2h-3.3v3.3h-1.4Z" class="st1"/>
    <path d="M17.5,20.5c.5,0,.8.3.8.8s-.3.8-.8.8-.8-.3-.8-.8.3-.8.8-.8ZM16.9,28.2v-5.3h1.3v5.3h-1.3Z" class="st1"/>
    <path d="M21,28.2h-1.3v-5.3h1.3v.9c.2-.6.9-1,1.8-1,1.3,0,2,.9,2,2.2v3.2h-1.3v-2.9c0-.8-.3-1.3-1.1-1.3s-1.2.5-1.2,1.3v2.9Z" class="st1"/>
    <path d="M27.4,28.2h-1.3v-5.3h1.3v.9c.2-.6.9-1,1.8-1,1.3,0,2,.9,2,2.2v3.2h-1.3v-2.9c0-.8-.3-1.3-1.1-1.3s-1.2.5-1.2,1.3v2.9Z" class="st1"/>
    <path d="M33.5,26c0,.8.6,1.3,1.5,1.3s1.1-.3,1.4-.7h1.2c-.4.9-1.4,1.7-2.6,1.7-1.8,0-2.8-1.2-2.8-2.8s1.2-2.8,2.8-2.8,2.8,1.2,2.8,2.8v.4h-4.2ZM33.5,25.2h3c0-.8-.6-1.4-1.5-1.4s-1.4.5-1.5,1.4Z" class="st1"/>
    <path d="M43.1,23.9v-.9h1.3v5.2c0,1.4-1.2,2.4-2.9,2.4s-2.4-.6-2.8-1.8h1.3c.3.5.8.8,1.5.8s1.6-.5,1.6-1.4v-1c-.3.5-1,1-1.8,1-1.6,0-2.6-1.2-2.6-2.6s1-2.6,2.6-2.6,1.6.5,1.9,1.1ZM43,25.5c0-.9-.7-1.5-1.6-1.5s-1.5.7-1.5,1.5.6,1.5,1.5,1.5,1.6-.6,1.6-1.5Z" class="st1"/>
    <path d="M51.4,22.9v5.3h-1.3v-.9c-.3.5-1,1-1.9,1-1.6,0-2.7-1.2-2.7-2.8s1.1-2.8,2.7-2.8,1.6.5,1.9,1v-.9h1.3ZM48.4,27.2c.9,0,1.6-.6,1.6-1.7s-.7-1.7-1.6-1.7-1.6.8-1.6,1.7.6,1.7,1.6,1.7Z" class="st1"/>
    <path d="M54.1,28.2h-1.3v-5.3h1.3v.9c.2-.6.9-1,1.8-1,1.3,0,2,.9,2,2.2v3.2h-1.3v-2.9c0-.8-.3-1.3-1.1-1.3s-1.2.5-1.2,1.3v2.9Z" class="st1"/>
    <path d="M60,26.6c0,.5.4.8,1,.8s.9-.3.9-.7-.2-.5-.6-.6l-.8-.2c-.9-.2-1.4-.7-1.4-1.5s.8-1.6,1.9-1.6,1.8.7,1.9,1.6h-1.1c0-.3-.2-.6-.7-.6s-.7.2-.7.6.2.5.6.6l.9.3c.8.2,1.3.7,1.3,1.5s-1,1.7-2.1,1.7-2-.5-2.1-1.7h1.1Z" class="st1"/>
  </g>
  <g>
    <path d="M22.9,30.2c-2.1,0-3.8,1.7-3.8,3.8s1.7,3.8,3.8,3.8,3.8-1.7,3.8-3.8-1.7-3.8-3.8-3.8ZM22.9,36.1c-1.2,0-2.1-1-2.1-2.1s1-2.1,2.1-2.1,2.1,1,2.1,2.1-1,2.1-2.1,2.1Z" class="st0"/>
    <path d="M16.1,33.2h-2.2v1.7h2.2c-.3.7-1.1,1.3-1.9,1.3s-2.1-1-2.1-2.1,1-2.1,2.1-2.1,1.1.3,1.5.7l1.6-.7c-.7-1-1.9-1.7-3.2-1.7-2.1,0-3.8,1.7-3.8,3.8s1.7,3.8,3.8,3.8,3.8-1.7,3.8-3.8,0-.6,0-.8h-1.8Z" class="st0"/>
  </g>
</svg>