<?xml version="1.0" encoding="UTF-8"?>
<svg id="Layer_1" data-name="Layer 1" xmlns="http://www.w3.org/2000/svg" viewBox="0 0 2106.21 731.67">
  <defs>
    <style>
      .cls-1 {
        fill: #a282ef;
      }

      .cls-2 {
        fill: #ff99db;
      }

      .cls-3 {
        fill: #b8c0ff;
      }

      .cls-4 {
        fill: #a24ecd;
      }

      .cls-5 {
        fill: #f93237;
      }

      .cls-6 {
        fill: #04102d;
      }

      .cls-7 {
        fill: #878d01;
      }

      .cls-8 {
        fill: #7562ef;
      }

      .cls-9 {
        fill: #bbbb01;
      }

      .cls-10 {
        fill: #f95440;
      }
    </style>
  </defs>
  <g>
    <path class="cls-6" d="M872.5,516.49V244.33h176.51v44.32h-125.97v72.32h122.47v43.93h-122.47v111.58h-50.54Z"/>
    <path class="cls-6" d="M1114.33,232.28c16.72,0,29.16,12.83,29.16,28.77s-12.44,28.77-29.16,28.77-29.16-12.44-29.16-28.77,12.83-28.77,29.16-28.77ZM1089.83,516.49v-194.01h48.99v194.01h-48.99Z"/>
    <path class="cls-6" d="M1243.02,516.49h-48.99v-194.01h47.43v33.05c8.94-22.55,34.21-37.71,64.54-37.71,46.66,0,72.7,34.21,72.7,82.42v116.25h-48.99v-108.09c0-27.6-12.44-47.82-41.6-47.82-26.83,0-45.1,19.44-45.1,47.43v108.47Z"/>
    <path class="cls-6" d="M1479.4,516.49h-48.99v-194.01h47.43v33.05c8.94-22.55,34.21-37.71,64.54-37.71,46.66,0,72.7,34.21,72.7,82.42v116.25h-48.99v-108.09c0-27.6-12.44-47.82-41.6-47.82-26.83,0-45.1,19.44-45.1,47.43v108.47Z"/>
    <path class="cls-6" d="M1692.85,232.28c16.72,0,29.16,12.83,29.16,28.77s-12.44,28.77-29.16,28.77-29.16-12.44-29.16-28.77,12.83-28.77,29.16-28.77ZM1668.35,516.49v-194.01h48.99v194.01h-48.99Z"/>
  </g>
  <g>
    <ellipse class="cls-1" cx="504.88" cy="370.51" rx="79.97" ry="201.75"/>
    <path class="cls-3" d="M424.91,370.51c0-54.49,8.56-103.92,22.48-140.22-10.49-9.97-22.25-15.58-34.7-15.58-43.91,0-79.5,69.63-79.5,155.51s35.59,155.52,79.5,155.52c12.38,0,24.09-5.55,34.53-15.43-13.82-36.26-22.32-85.53-22.32-139.8Z"/>
    <ellipse class="cls-9" cx="330.1" cy="368.99" rx="58.76" ry="101.32"/>
    <path class="cls-7" d="M388.94,368.98c0,44.23-16.44,81.81-39.35,95.64-10.24-26.18-16.32-58.89-16.32-94.39,0-36.42,6.4-69.91,17.12-96.41,22.5,14.21,38.55,51.46,38.55,95.17Z"/>
    <path class="cls-8" d="M447.38,230.32c-13.91,36.3-22.47,85.72-22.47,140.2s8.51,103.59,22.34,139.86c26.57-25.18,44.9-78.45,44.9-140.09s-18.27-114.74-44.77-139.96Z"/>
    <path class="cls-2" d="M584.46,370.51c0-54.49-8.56-103.92-22.48-140.22,10.49-9.97,22.25-15.58,34.7-15.58,43.91,0,79.5,69.63,79.5,155.51,0,85.89-35.59,155.52-79.5,155.52-12.38,0-24.09-5.55-34.53-15.43,13.82-36.26,22.32-85.53,22.32-139.8Z"/>
    <ellipse class="cls-10" cx="679.27" cy="368.99" rx="58.76" ry="101.32"/>
    <path class="cls-5" d="M620.43,368.98c0,44.23,16.44,81.81,39.35,95.64,10.24-26.18,16.32-58.89,16.32-94.39s-6.4-69.91-17.12-96.41c-22.5,14.21-38.55,51.46-38.55,95.17Z"/>
    <path class="cls-4" d="M561.99,230.32c13.91,36.3,22.47,85.72,22.47,140.2,0,54.3-8.51,103.59-22.34,139.86-26.57-25.18-44.9-78.45-44.9-140.09,0-61.54,18.27-114.74,44.77-139.96Z"/>
  </g>
</svg>