<?xml version="1.0" encoding="utf-8"?>
<!-- Generator: Adobe Illustrator 29.6.1, SVG Export Plug-In . SVG Version: 9.03 Build 0)  -->
<svg version="1.1" baseProfile="tiny" id="Isolation_Mode"
	 xmlns="http://www.w3.org/2000/svg" xmlns:xlink="http://www.w3.org/1999/xlink" x="0px" y="0px" viewBox="0 0 68.5 38.8"
	 overflow="visible" xml:space="preserve">
<g>
	<g>
		<path fill="#FFFFFF" d="M0,25.6V15.4h6.3V17H1.8v2.7h4.4v1.6H1.8v4.3H0z"/>
		<path fill="#FFFFFF" d="M8.6,15.4c0.6,0,1,0.5,1,1c0,0.6-0.4,1-1,1c-0.6,0-1-0.4-1-1C7.6,15.9,8.1,15.4,8.6,15.4z M7.8,25.6v-6.9
			h1.7v6.9H7.8z"/>
		<path fill="#FFFFFF" d="M13.2,25.6h-1.7v-6.9h1.7v1.2c0.3-0.8,1.2-1.3,2.3-1.3c1.7,0,2.6,1.2,2.6,2.9v4.2h-1.7v-3.9
			c0-1-0.4-1.7-1.5-1.7c-1,0-1.6,0.7-1.6,1.7V25.6z"/>
		<path fill="#FFFFFF" d="M21.7,25.6h-1.7v-6.9h1.7v1.2c0.3-0.8,1.2-1.3,2.3-1.3c1.7,0,2.6,1.2,2.6,2.9v4.2h-1.7v-3.9
			c0-1-0.4-1.7-1.5-1.7c-1,0-1.6,0.7-1.6,1.7V25.6z"/>
		<path fill="#FFFFFF" d="M29.7,22.7c0.1,1,0.8,1.7,2,1.7c0.8,0,1.5-0.4,1.8-0.9h1.6c-0.5,1.2-1.8,2.2-3.5,2.2
			c-2.4,0-3.7-1.6-3.7-3.6c0-2.1,1.5-3.6,3.7-3.6c2.2,0,3.6,1.5,3.6,3.7v0.6H29.7z M29.6,21.5h3.9c-0.1-1.1-0.8-1.8-1.9-1.8
			C30.5,19.7,29.8,20.4,29.6,21.5z"/>
		<path fill="#FFFFFF" d="M42.2,19.9v-1.2h1.7v6.8c0,1.8-1.6,3.2-3.8,3.2c-1.8,0-3.2-0.8-3.7-2.4h1.7c0.3,0.7,1,1,2,1
			c1.2,0,2-0.7,2-1.8v-1.3c-0.4,0.7-1.3,1.3-2.4,1.3c-2.1,0-3.4-1.5-3.4-3.5c0-1.9,1.4-3.5,3.4-3.5C40.9,18.5,41.9,19.1,42.2,19.9z
			 M42.2,21.9c0-1.2-0.9-2-2.1-2c-1.2,0-2,0.9-2,2c0,1.2,0.8,2,2,2C41.2,24,42.2,23.1,42.2,21.9z"/>
		<path fill="#FFFFFF" d="M53.1,18.6v6.9h-1.7v-1.2c-0.4,0.7-1.3,1.4-2.5,1.4c-2.1,0-3.5-1.6-3.5-3.6c0-2,1.4-3.6,3.5-3.6
			c1.2,0,2.2,0.6,2.5,1.4v-1.2H53.1z M49.2,24.3c1.2,0,2.1-0.8,2.1-2.2s-1-2.2-2.1-2.2c-1.2,0-2.1,1-2.1,2.2
			C47.1,23.3,48,24.3,49.2,24.3z"/>
		<path fill="#FFFFFF" d="M56.8,25.6H55v-6.9h1.7v1.2c0.3-0.8,1.2-1.3,2.3-1.3c1.7,0,2.6,1.2,2.6,2.9v4.2h-1.7v-3.9
			c0-1-0.4-1.7-1.5-1.7c-1,0-1.6,0.7-1.6,1.7V25.6z"/>
		<path fill="#FFFFFF" d="M64.5,23.5c0.1,0.6,0.5,1,1.3,1c0.7,0,1.1-0.3,1.1-0.9c0-0.4-0.2-0.7-0.7-0.8l-1-0.3
			c-1.2-0.3-1.9-0.9-1.9-2c0-1.3,1.1-2.1,2.5-2.1c1.5,0,2.3,0.9,2.5,2.1h-1.5c0-0.4-0.3-0.8-0.9-0.8c-0.5,0-0.9,0.3-0.9,0.7
			c0,0.4,0.2,0.6,0.7,0.7l1.2,0.3c1.1,0.3,1.7,0.9,1.7,1.9c0,1.4-1.3,2.3-2.7,2.3c-1.4,0-2.6-0.7-2.8-2.2H64.5z"/>
	</g>
	<g>
		<path fill="#002B2A" d="M9.4,38.8H7.6l-0.6-1.7H2.5l-0.6,1.7H0l4.1-9.5h1.3L9.4,38.8z M4.7,31.3l-1.7,4.3h3.3L4.7,31.3z"/>
		<path fill="#002B2A" d="M17.4,34.3h-1.7c-0.3-0.6-0.9-1.2-1.9-1.2c-1.3,0-2,1-2,2.1c0,1.1,0.7,2.1,2,2.1c1,0,1.6-0.5,1.9-1.2h1.7
			c-0.4,1.4-1.7,2.6-3.5,2.6c-2.3,0-3.7-1.5-3.7-3.5c0-2,1.5-3.6,3.7-3.6C15.7,31.7,17,32.8,17.4,34.3z"/>
		<path fill="#002B2A" d="M25.9,31.9v6.8h-1.6v-1.3c-0.4,0.7-1.3,1.3-2.5,1.3c-2,0-3.4-1.6-3.4-3.5c0-2,1.4-3.6,3.4-3.6
			c1.2,0,2.1,0.6,2.4,1.3v-1.1H25.9z M22.1,37.4c1.1,0,2.1-0.8,2.1-2.1c0-1.3-1-2.1-2.1-2.1c-1.2,0-2,1-2,2.1
			C20.1,36.4,20.9,37.4,22.1,37.4z"/>
		<path fill="#002B2A" d="M33.2,28.7h1.7v10.1h-1.6v-1.3c-0.4,0.7-1.3,1.3-2.5,1.3c-2,0-3.4-1.6-3.4-3.5c0-2,1.4-3.6,3.4-3.6
			c1.2,0,2.1,0.6,2.4,1.3V28.7z M31.1,37.3c1.1,0,2.1-0.8,2.1-2.1c0-1.3-1-2.1-2.1-2.1c-1.2,0-2,1-2,2.1
			C29.1,36.4,29.9,37.3,31.1,37.3z"/>
		<path fill="#002B2A" d="M38,35.8c0.1,1,0.8,1.7,2,1.7c0.8,0,1.5-0.4,1.8-0.9h1.6c-0.5,1.2-1.8,2.1-3.4,2.1c-2.3,0-3.7-1.5-3.7-3.6
			c0-2,1.5-3.5,3.6-3.5c2.1,0,3.6,1.5,3.6,3.6v0.6H38z M38,34.7h3.8c-0.1-1-0.8-1.8-1.9-1.8C38.9,32.9,38.1,33.6,38,34.7z"/>
		<path fill="#002B2A" d="M46.6,38.8h-1.7v-6.8h1.7v1.2c0.3-0.8,1.1-1.3,2.2-1.3c1.1,0,1.8,0.5,2.2,1.3c0.5-0.8,1.4-1.3,2.5-1.3
			c1.6,0,2.5,1.2,2.5,2.9v4.1h-1.7V35c0-1-0.4-1.7-1.4-1.7c-0.9,0-1.5,0.7-1.5,1.6v3.9h-1.7V35c0-1-0.4-1.7-1.4-1.7
			c-0.9,0-1.5,0.7-1.5,1.7V38.8z"/>
		<path fill="#002B2A" d="M58.6,28.9c0.6,0,1,0.4,1,1c0,0.6-0.4,1-1,1c-0.6,0-1-0.4-1-1C57.6,29.3,58,28.9,58.6,28.9z M57.7,38.8
			v-6.8h1.7v6.8H57.7z"/>
		<path fill="#002B2A" d="M68.5,31.9v6.8h-1.6v-1.3c-0.4,0.7-1.3,1.3-2.5,1.3c-2,0-3.4-1.6-3.4-3.5c0-2,1.4-3.6,3.4-3.6
			c1.2,0,2.1,0.6,2.4,1.3v-1.1H68.5z M64.7,37.4c1.1,0,2.1-0.8,2.1-2.1c0-1.3-0.9-2.1-2.1-2.1c-1.2,0-2,1-2,2.1
			C62.6,36.4,63.5,37.4,64.7,37.4z"/>
	</g>
	<path fill="#002B2A" d="M8.4,0c-1,0-1.9,1.8-2.1,4.1C6,2.9,5.3,2,4.6,2c-1,0-1.9,1.5-2,3.4c-0.3-0.6-0.7-1-1.1-1
		C0.6,4.4,0,5.7,0,7.3c0,1.6,0.6,2.8,1.4,2.8c0.6,0,1.2-0.8,1.4-2c0.4,1.1,1,1.9,1.7,1.9c0.9,0,1.7-1.2,2-2.9
		c0.3,1.7,1.1,2.9,1.9,2.9c1.2,0,2.1-2.3,2.1-5S9.6,0,8.4,0z"/>
</g>
</svg>
