<svg xml:space="preserve" overflow="visible" viewBox="51.06798516687268 38.494400000000006 532.6783683559951 318.95360000000005" y="0px" x="0px" xmlns:xlink="http://www.w3.org/1999/xlink" xmlns="http://www.w3.org/2000/svg" id="Layer_2_00000183240778625129626000000014744334071991257733_" version="1.1" style="max-height: 500px" width="532.6783683559951" height="318.95360000000005">
<g>
	<path d="M54.2,232.2v-77.8h48.3v12.1H68V187h33.5v12H68v33.1L54.2,232.2L54.2,232.2z" fill="#FFFFFF"/>
	<path d="M120.5,154.4c4.6,0,8,3.5,8,7.9s-3.4,7.9-8,7.9s-8-3.4-8-7.9S116,154.4,120.5,154.4z M113.8,232.2v-53.1&#10;&#9;&#9;h13.4v53.1L113.8,232.2L113.8,232.2z" fill="#FFFFFF"/>
	<path d="M155.7,232.2h-13.4v-53.1h13v9.1c2.4-6.2,9.4-10.3,17.7-10.3c12.8,0,19.9,9.4,19.9,22.6v31.8h-13.4v-29.6&#10;&#9;&#9;c0-7.6-3.4-13.1-11.4-13.1s-12.4,5.3-12.4,13v29.7L155.7,232.2z" fill="#FFFFFF"/>
	<path d="M220.5,232.2h-13.4v-53.1h13v9.1c2.4-6.2,9.4-10.3,17.7-10.3c12.8,0,19.9,9.4,19.9,22.6v31.8h-13.4v-29.6&#10;&#9;&#9;c0-7.6-3.4-13.1-11.4-13.1s-12.4,5.3-12.4,13v29.7L220.5,232.2z" fill="#FFFFFF"/>
	<path d="M281.7,210.2c0.9,8,6,13.4,15.4,13.4s11.5-2.9,14.1-6.9h12.5c-3.6,9.5-13.8,16.8-26.5,16.8&#10;&#9;&#9;c-18.1,0-28.6-12-28.6-27.9s11.6-27.8,28-27.8s27.9,11.6,27.9,28v4.4H281.7L281.7,210.2z M281.6,201.3h30c-0.9-8.2-6.3-14-14.9-14&#10;&#9;&#9;S282.6,192.6,281.6,201.3z" fill="#FFFFFF"/>
	<path d="M377.8,188.4V179H391v52.4c0,13.7-12.5,24.2-29,24.2s-24.5-6.1-28.5-18.2h13.3c2.6,5.1,7.6,7.9,15.1,7.9&#10;&#9;&#9;s15.7-5,15.7-13.8v-10.3c-3.1,5.3-9.9,9.8-18.6,9.8c-15.8,0-26.3-11.8-26.3-26.5s10.5-26.6,26.3-26.6S375.3,182.6,377.8,188.4&#10;&#9;&#9;L377.8,188.4z M377.5,204.4c0-9.4-7.2-15.5-16.1-15.5s-15.5,6.6-15.5,15.5s6.1,15.4,15.5,15.4S377.5,213.6,377.5,204.4z" fill="#FFFFFF"/>
	<path d="M461.5,179.1v53.1h-12.9V223c-3.1,5.4-10.1,10.4-19.4,10.4c-15.8,0-26.8-12.6-26.8-27.8&#10;&#9;&#9;s11.1-27.9,26.8-27.9s16.5,4.8,19.2,10.4v-9.2h13.1L461.5,179.1z M431.8,222.4c8.8,0,16.3-6.5,16.3-16.7s-7.5-16.8-16.3-16.8&#10;&#9;&#9;s-16,7.6-16,16.8S422.2,222.4,431.8,222.4z" fill="#FFFFFF"/>
	<path d="M489.6,232.2h-13.4v-53.1h13v9.1c2.4-6.2,9.4-10.3,17.7-10.3c12.8,0,19.9,9.4,19.9,22.6v31.8h-13.4v-29.6&#10;&#9;&#9;c0-7.6-3.4-13.1-11.4-13.1s-12.4,5.3-12.4,13v29.7L489.6,232.2z" fill="#FFFFFF"/>
	<path d="M548.6,216.3c0.7,4.9,3.9,7.8,9.8,7.8s8.7-2.6,8.7-6.8s-1.8-5.2-5.8-6.3l-7.9-2.1&#10;&#9;&#9;c-9.2-2.3-14.3-6.8-14.3-15.3s8.3-15.8,18.8-15.8s17.8,6.6,18.8,15.9h-11.4c-0.2-3.3-2.4-6.5-7.1-6.5s-6.9,2.2-6.9,5.8&#10;&#9;&#9;s1.9,4.6,5.8,5.6l9.5,2.7c8.5,2.3,12.7,7.2,12.7,14.9s-10,17.4-20.9,17.4s-19.9-5.1-21.3-17.1h11.4L548.6,216.3z" fill="#FFFFFF"/>
</g>
<g>
	<g>
		<path d="M93.9,255.5c23.8,0,39.7,17.2,39.7,38.8c0,12.5-5.2,23.5-14.3,30.5l9.8,13.3h-14.9l-5.5-7.5&#10;&#9;&#9;&#9;c-3.7,1.5-9.4,2.5-14.7,2.5c-23.7,0-39.7-17.1-39.7-38.8C54.2,272.6,70.2,255.5,93.9,255.5z M105.1,305.3l6.6,9.1&#10;&#9;&#9;&#9;c5.1-5,8-12.3,8-20.1c0-14.4-9.6-26.9-25.8-26.9c-16.1,0-25.8,12.5-25.8,26.9c0,14.3,9.7,26.9,25.8,26.9c2.6,0,4.9-0.3,7.1-0.9&#10;&#9;&#9;&#9;l-11-15H105.1z" fill="#23087A"/>
	</g>
	<g>
		<path d="M181.9,278.4h13.4v53.2h-12.9v-9c-2.7,6.1-9.3,10.2-17.6,10.2c-12.8,0-19.7-9.4-19.7-22.5v-32h13.4v29.9&#10;&#9;&#9;&#9;c0,7.7,3,13.1,11.2,13.1c7.7,0,12.2-5.3,12.2-13V278.4z" fill="#23087A"/>
	</g>
	<g>
		<path d="M217.2,253.6c4.6,0,8,3.5,8,7.9c0,4.5-3.4,7.9-8,7.9c-4.5,0-8-3.4-8-7.9&#10;&#9;&#9;&#9;C209.2,257.2,212.7,253.6,217.2,253.6z M210.5,331.6v-53.2h13.4v53.2H210.5z" fill="#23087A"/>
	</g>
	<g>
		<path d="M252.5,353.9h-13.4v-75.5H252v9.2c3.1-5.4,10.1-10.5,19.4-10.5c15.8,0,26.9,12.6,26.9,27.9&#10;&#9;&#9;&#9;c0,15.3-11.1,27.8-26.9,27.8c-9.3,0-16.2-4.7-18.9-10.5V353.9z M268.7,288.2c-8.7,0-16.2,6.6-16.2,16.9s7.5,16.7,16.2,16.7&#10;&#9;&#9;&#9;c9.6,0,16.1-7.5,16.1-16.7S278.3,288.2,268.7,288.2z" fill="#23087A"/>
	</g>
	<g>
		<path d="M323.1,353.9h-13.4v-75.5h12.9v9.2c3.1-5.4,10.1-10.5,19.4-10.5c15.8,0,26.9,12.6,26.9,27.9&#10;&#9;&#9;&#9;c0,15.3-11.1,27.8-26.9,27.8c-9.3,0-16.2-4.7-18.9-10.5V353.9z M339.3,288.2c-8.7,0-16.2,6.6-16.2,16.9s7.5,16.7,16.2,16.7&#10;&#9;&#9;&#9;c9.6,0,16.1-7.5,16.1-16.7S348.9,288.2,339.3,288.2z" fill="#23087A"/>
	</g>
	<g>
		<path d="M377,305.1c0-14.5,10.9-27.9,29.2-27.9c18.3,0,29.2,13.4,29.2,27.9c0,14.4-10.9,27.8-29.2,27.8&#10;&#9;&#9;&#9;C387.9,332.9,377,319.5,377,305.1z M390.1,305.1c0,8.6,5.8,16.6,16.1,16.6c10.3,0,16.1-8,16.1-16.6c0-8.6-5.8-16.7-16.1-16.7&#10;&#9;&#9;&#9;C395.9,288.3,390.1,296.4,390.1,305.1z" fill="#23087A"/>
	</g>
	<g>
		<path d="M454.5,315.7c0.7,4.9,3.9,7.8,9.8,7.8c5.1,0,8.7-2.6,8.7-6.8c0-3.4-1.8-5.2-5.8-6.3l-7.9-2.1&#10;&#9;&#9;&#9;c-9.2-2.3-14.3-6.8-14.3-15.4c0-9.7,8.3-15.8,18.9-15.8c11.4,0,17.8,6.6,18.9,15.9h-11.4c-0.2-3.3-2.5-6.5-7.1-6.5&#10;&#9;&#9;&#9;c-4.2,0-6.9,2.2-6.9,5.8c0,3.3,1.9,4.6,5.8,5.7l9.5,2.7c8.5,2.3,12.7,7.3,12.7,14.9c0,10.6-10,17.4-20.9,17.4&#10;&#9;&#9;&#9;c-11.1,0-19.9-5.1-21.3-17.2H454.5z" fill="#23087A"/>
	</g>
</g>
<g>
	<g>
		<g>
			<g>
				<path d="M108.1,114.5c0-9.6,7.6-17.3,17-17.3c1.2,0,2.4,0.1,3.5,0.4c2.8-5.4,4.4-11.6,4.4-18.2&#10;&#9;&#9;&#9;&#9;&#9;C133,57.6,115.4,40,93.6,40S54.2,57.6,54.2,79.4c0,21.8,17.6,39.4,39.4,39.4c5.2,0,10.1-1,14.6-2.8&#10;&#9;&#9;&#9;&#9;&#9;C108.2,115.5,108.1,115,108.1,114.5z M93.6,96.6c-9.5,0-17.2-7.7-17.2-17.2c0-9.5,7.7-17.2,17.2-17.2c9.5,0,17.2,7.7,17.2,17.2&#10;&#9;&#9;&#9;&#9;&#9;C110.9,88.9,103.1,96.6,93.6,96.6z" fill="#23087A"/>
			</g>
		</g>
	</g>
	<g>
		<g>
			<ellipse ry="13.2" rx="12.9" cy="116.1" cx="127.7" fill="#23087A"/>
		</g>
	</g>
</g>
</svg>