<?xml version="1.0" encoding="UTF-8"?>
<svg id="Layer_3" data-name="Layer 3" xmlns="http://www.w3.org/2000/svg" viewBox="0 0 297.68 80">
  <defs>
    <style>
      .cls-1 {
        fill: #7e8eed;
      }

      .cls-2 {
        fill: #fff;
      }
    </style>
  </defs>
  <g>
    <rect class="cls-2" x="0" y="2.88" width="297.68" height="74.24" rx="37.12" ry="37.12"/>
    <circle class="cls-1" cx="38.81" cy="40.34" r="30.51"/>
    <g>
      <path class="cls-2" d="M56.41,40.99c-1.68,1.75-4.25,2.87-7.04,3.07-2.57.19-4.95-.53-7.05-2.14-.87-.66-1.61-1.3-2.23-1.85l-2.62-2.76-16.99,16.17,3.49,3.66,13.39-12.75c.56.49,1.19,1,1.89,1.54,2.79,2.14,5.91,3.21,9.29,3.21.4,0,.8-.01,1.2-.04,2.13-.16,4.15-.68,6-1.55,1.65-.78,3.14-1.84,4.32-3.06l-3.65-3.5Z"/>
      <ellipse class="cls-2" cx="37.39" cy="29.77" rx="3.8" ry="3.87"/>
    </g>
  </g>
  <g>
    <path class="cls-1" d="M97.79,48.61c.39,2.58,2.08,4.1,5.17,4.1,2.7,0,4.6-1.35,4.6-3.59,0-1.8-.95-2.75-3.03-3.31l-4.16-1.12c-4.83-1.24-7.52-3.59-7.52-8.09,0-5.11,4.38-8.31,9.94-8.31,6.01,0,9.38,3.48,9.94,8.37h-6.01c-.11-1.74-1.29-3.43-3.76-3.43-2.19,0-3.65,1.18-3.65,3.03,0,1.74,1.01,2.41,3.03,2.98l5,1.4c4.49,1.24,6.68,3.82,6.68,7.86,0,5.56-5.28,9.15-11.01,9.15s-10.5-2.7-11.23-9.04h6.01Z"/>
    <path class="cls-1" d="M117.95,43c0-7.64,5.73-14.71,15.39-14.71s15.39,7.08,15.39,14.71-5.73,14.66-15.39,14.66-15.39-7.08-15.39-14.66ZM124.86,43c0,4.55,3.03,8.76,8.48,8.76s8.48-4.21,8.48-8.76-3.03-8.82-8.48-8.82-8.48,4.27-8.48,8.82Z"/>
    <path class="cls-1" d="M182.92,38.95h-6.85c-1.18-2.58-3.59-4.77-7.75-4.77-5.33,0-8.31,4.1-8.31,8.82s2.98,8.76,8.31,8.76c4.16,0,6.57-2.08,7.75-4.77h6.85c-1.46,5.84-6.91,10.67-14.54,10.67-9.32,0-15.39-6.4-15.39-14.66s6.06-14.71,15.39-14.71c7.64,0,13.08,4.83,14.54,10.67Z"/>
    <path class="cls-1" d="M192.58,16.81c2.41,0,4.21,1.85,4.21,4.16s-1.8,4.16-4.21,4.16-4.21-1.8-4.21-4.16,1.85-4.16,4.21-4.16ZM189.04,57.85v-28.02h7.08v28.02h-7.08Z"/>
    <path class="cls-1" d="M233.51,29.06v28.77h-6.79v-5.58c-1.63,2.86-5.33,5.5-10.22,5.5-8.31,0-14.15-6.63-14.15-14.66s5.84-14.71,14.15-14.71c4.89,0,8.7,2.53,10.11,5.5v-4.83h6.91ZM217.84,51.91c4.66,0,8.59-3.43,8.59-8.82s-3.93-8.87-8.59-8.87c-5.05,0-8.42,3.99-8.42,8.87s3.37,8.82,8.42,8.82Z"/>
    <path class="cls-1" d="M241.26,57.76V16.77h7.08v40.99h-7.08Z"/>
  </g>
</svg>