<?xml version="1.0" encoding="UTF-8"?>
<svg id="Layer_1" data-name="Layer 1" xmlns="http://www.w3.org/2000/svg" viewBox="0 0 553.7 565.29">
  <defs>
    <style>
      .cls-1 {
        fill: #3985ff;
      }
    </style>
  </defs>
  <ellipse class="cls-1" cx="207.55" cy="282.08" rx="39.99" ry="39.98"/>
  <path class="cls-1" d="M192.94,186.85c-14.74-11.18-17.63-32.2-6.44-46.95,11.18-14.74,32.2-17.63,46.95-6.44l123.75,93.89c18.55,14.07,29.1,34.4,28.95,55.78-.15,21.44-11.05,41.7-29.91,55.58l-126.83,93.4c-5.98,4.41-12.94,6.53-19.84,6.53-10.29,0-20.44-4.72-27.01-13.64-10.97-14.9-7.79-35.88,7.11-46.85l105.07-77.89c12.01-8.9,12.12-26.84.21-35.88l-102.01-77.53ZM319.24,283.4h.02-.02Z"/>
</svg>