<?xml version="1.0" encoding="UTF-8"?>
<svg id="Layer_2" xmlns="http://www.w3.org/2000/svg" version="1.1" viewBox="0 0 694.1 407.7">
  <!-- Generator: Adobe Illustrator 29.6.1, SVG Export Plug-In . SVG Version: 2.1.1 Build 9)  -->
  <defs>
    <style>
      .st0 {
        fill: #fff;
      }

      .st1 {
        fill: #04102d;
      }
    </style>
  </defs>
  <g>
    <path class="st1" d="M78.8,109c6.1,0,11-4.9,11-11s-4.9-11-11-11-11,4.9-11,11,4.9,11,11,11Z"/>
    <path class="st1" d="M119.8,83l-33.9-25.7c-4-3.1-9.8-2.3-12.9,1.8-3.1,4-2.3,9.8,1.8,12.9l28,21.2c3.3,2.5,3.2,7.4,0,9.8l-28.8,21.3c-4.1,3-5,8.8-1.9,12.8,1.8,2.4,4.6,3.7,7.4,3.7s3.8-.6,5.4-1.8l34.8-25.6c5.2-3.8,8.2-9.4,8.2-15.2,0-5.9-2.8-11.4-7.9-15.3Z"/>
  </g>
  <g>
    <g>
      <path class="st0" d="M72.5,249v-76.6h47.6v12h-34v20.2h33v11.8h-33v32.6h-13.6Z"/>
      <path class="st0" d="M137.8,172.4c4.5,0,7.9,3.5,7.9,7.8s-3.4,7.8-7.9,7.8-7.9-3.4-7.9-7.8,3.5-7.8,7.9-7.8ZM131.2,249v-52.3h13.2v52.3h-13.2Z"/>
      <path class="st0" d="M172.5,249h-13.2v-52.3h12.8v8.9c2.4-6.1,9.2-10.2,17.4-10.2,12.6,0,19.6,9.2,19.6,22.2v31.4h-13.2v-29.2c0-7.4-3.4-12.9-11.2-12.9s-12.2,5.2-12.2,12.8v29.3Z"/>
      <path class="st0" d="M236.2,249h-13.2v-52.3h12.8v8.9c2.4-6.1,9.2-10.2,17.4-10.2,12.6,0,19.6,9.2,19.6,22.2v31.4h-13.2v-29.2c0-7.4-3.4-12.9-11.2-12.9s-12.2,5.2-12.2,12.8v29.3Z"/>
      <path class="st0" d="M296.5,227.3c.8,7.9,5.9,13.2,15.2,13.2s11.3-2.8,13.8-6.8h12.3c-3.6,9.3-13.6,16.6-26.1,16.6-17.8,0-28.2-11.8-28.2-27.5s11.4-27.4,27.6-27.4,27.5,11.4,27.5,27.6v4.3h-42ZM296.4,218.6h29.6c-.8-8.1-6.2-13.7-14.7-13.7s-13.8,5.2-14.9,13.7Z"/>
      <path class="st0" d="M391.1,205.9v-9.2h13v51.6c0,13.5-12.3,23.8-28.5,23.8s-24.1-6-28.1-17.9h13.1c2.5,5,7.4,7.8,14.9,7.8s15.4-4.9,15.4-13.6v-10.2c-3,5.2-9.8,9.6-18.3,9.6-15.5,0-25.9-11.6-25.9-26.1s10.4-26.2,25.9-26.2,16,4.6,18.6,10.5ZM390.9,221.7c0-9.2-7.1-15.3-15.8-15.3s-15.3,6.5-15.3,15.3,6,15.2,15.3,15.2,15.8-6.1,15.8-15.2Z"/>
      <path class="st0" d="M473.5,196.7v52.3h-12.7v-9c-3,5.3-10,10.3-19.1,10.3-15.5,0-26.4-12.4-26.4-27.4s10.9-27.5,26.4-27.5,16.3,4.7,18.9,10.3v-9h12.9ZM444.2,239.4c8.7,0,16-6.4,16-16.5s-7.3-16.6-16-16.6-15.7,7.4-15.7,16.6,6.3,16.5,15.7,16.5Z"/>
      <path class="st0" d="M501.2,249h-13.2v-52.3h12.8v8.9c2.4-6.1,9.2-10.2,17.4-10.2,12.6,0,19.6,9.2,19.6,22.2v31.4h-13.2v-29.2c0-7.4-3.4-12.9-11.2-12.9s-12.2,5.2-12.2,12.8v29.3Z"/>
      <path class="st0" d="M559.3,233.4c.7,4.8,3.9,7.7,9.6,7.7s8.6-2.5,8.6-6.7-1.8-5.1-5.7-6.2l-7.8-2.1c-9-2.3-14.1-6.7-14.1-15.1s8.2-15.5,18.6-15.5,17.5,6.5,18.6,15.6h-11.2c-.2-3.3-2.4-6.4-7-6.4s-6.8,2.2-6.8,5.7,1.9,4.5,5.7,5.6l9.3,2.6c8.4,2.3,12.5,7.1,12.5,14.7s-9.9,17.1-20.6,17.1-19.6-5-21-16.9h11.2Z"/>
    </g>
    <g>
      <path class="st1" d="M192.3,269.6c-20.8,0-37.7,16.9-37.7,37.7s16.9,37.7,37.7,37.7,37.7-16.9,37.7-37.7-16.9-37.7-37.7-37.7ZM192.3,328.3c-11.6,0-20.9-9.4-20.9-20.9s9.4-20.9,20.9-20.9,20.9,9.4,20.9,20.9-9.4,20.9-20.9,20.9Z"/>
      <path class="st1" d="M124.9,299.1h-21.9v16.8h21.8c-3.3,7.3-10.6,12.4-19.1,12.4s-20.9-9.4-20.9-20.9,9.4-20.9,20.9-20.9,11.3,2.5,15.1,6.4l16-6.8c-6.8-9.9-18.2-16.4-31.1-16.4-20.8,0-37.7,16.9-37.7,37.7s16.9,37.7,37.7,37.7,37.7-16.9,37.7-37.7-.3-5.6-.9-8.2h-17.6Z"/>
    </g>
  </g>
</svg>